<svg width="16" height="20" viewBox="0 0 16 20" fill="none" xmlns="http://www.w3.org/2000/svg">
<g clip-path="url(#clip0_12_4)">
<path d="M14.1512 10.0019C13.9795 9.61907 13.7426 9.24205 13.3961 8.80658C12.5226 7.71352 12.256 5.27605 12.2531 5.25267C12.2412 5.13577 12.1583 5.03932 12.0488 5.00425C11.9362 4.96918 11.8148 5.00133 11.7349 5.08901C10.6925 6.24929 11.1308 8.04085 11.3677 8.75689C11.4328 8.95271 11.5039 9.1836 11.5542 9.41741C11.9392 11.3083 11.1959 12.1647 11.0212 12.3371C10.8524 12.3839 10.7369 12.3605 10.6303 12.2465C10.2631 11.8461 10.1417 10.5338 10.3135 8.82411C10.349 8.47632 10.3401 8.1636 10.2898 7.87134C9.92758 5.76989 8.5995 4.42192 8.26139 3.94919C7.33158 2.5814 7.23682 0.304679 7.23386 0.284221C7.2309 0.176084 7.16872 0.0796377 7.071 0.0328758C6.97624 -0.0138861 6.86075 -0.00804087 6.77192 0.0533341C5.22026 1.10255 5.35351 3.63062 5.56968 5.04224C5.62002 5.36958 5.71774 5.70276 5.88653 6.12361C6.48764 7.62876 5.76808 9.5723 5.76216 9.58984C5.75623 9.60738 5.75031 9.62199 5.74735 9.63952C5.65555 10.1188 5.50157 10.4052 5.32982 10.4052C5.31206 10.4052 5.29429 10.4023 5.27356 10.3965C5.06332 10.3526 4.95375 10.1305 4.95079 9.93763C4.93895 7.44464 2.42491 6.60585 2.39826 6.59708C2.28573 6.56201 2.16136 6.59415 2.08437 6.68476C2.00442 6.77536 1.98962 6.90103 2.04292 7.00624C2.07253 7.06762 2.16729 7.3365 2.10214 8.28635C2.04588 9.13976 1.88894 9.98439 1.63724 10.794C1.03908 12.7346 1.13384 14.5729 1.13976 14.6606C1.59972 19.638 8.79259 20.5102 13.0615 17.706C13.5293 17.3991 13.9113 17.0484 14.1926 16.6626C15.768 14.4998 14.8412 11.5626 14.1512 10.0019ZM3.20965 14.757C3.21853 14.9178 3.09416 15.0551 2.9313 15.0639H2.91353C2.75659 15.0639 2.6263 14.9441 2.61742 14.7892C2.59076 14.3625 2.59669 13.9153 2.62926 13.4302C2.6411 13.2694 2.78324 13.1496 2.94611 13.1583C3.10897 13.17 3.23334 13.3103 3.2215 13.471C3.18889 13.9329 3.183 14.3537 3.20965 14.757ZM3.35472 12.1676C3.33695 12.3166 3.20962 12.4248 3.06156 12.4248C3.04972 12.4248 3.03787 12.4248 3.02307 12.4219C2.86316 12.4014 2.74768 12.2582 2.76544 12.0974L2.90758 10.9693C2.92831 10.8115 3.07341 10.6975 3.23923 10.715C3.4021 10.7355 3.51758 10.8816 3.49686 11.0424L3.35472 12.1676Z" fill="#FF6B09"/>
<path d="M12.1483 3.99843C11.9868 3.97374 11.8761 3.82477 11.901 3.66537C11.9195 3.54663 12.0264 2.93872 12.3168 2.63304C12.4285 2.51517 12.6157 2.50904 12.7354 2.61978C12.8547 2.73007 12.8607 2.91505 12.7488 3.03292C12.6259 3.16236 12.5212 3.5328 12.4863 3.75445C12.4613 3.91216 12.3122 4.02284 12.1483 3.99843Z" fill="#FF6B09"/>
<path d="M1.3526 5.45415C1.29592 5.23679 1.15509 4.87833 1.01991 4.76131C0.896871 4.65484 0.884582 4.47019 0.992428 4.3489C1.10001 4.22732 1.28695 4.2149 1.41028 4.32178C1.72938 4.59791 1.89609 5.19257 1.92632 5.30886C1.9668 5.46514 1.87139 5.6241 1.71321 5.66434C1.55153 5.70447 1.3929 5.60782 1.3526 5.45415Z" fill="#FF6B09"/>
</g>
<defs>
<clipPath id="clip0_12_4">
<rect width="14.2137" height="19.2893" fill="white" transform="translate(0.880859)"/>
</clipPath>
</defs>
</svg>
