<svg aria-hidden="true" style="position: absolute; width: 0; height: 0; overflow: hidden;" version="1.1" xmlns="http://www.w3.org/2000/svg" xmlns:xlink="http://www.w3.org/1999/xlink">
<defs>
<symbol id="icon-hwd-audiobook" viewBox="0 0 39 32">
<path d="M3.047 29.453h12.23c0.62 1.285 1.917 2.116 3.38 2.116h0.772c1.465 0 2.761-0.83 3.381-2.116h12.237c1.26 0 2.286-1.025 2.286-2.286v-21.905c0-1.26-1.025-2.286-2.286-2.286h-1.234v-1.021c0-0.84-0.684-1.524-1.524-1.524h-26.491c-0.84 0-1.524 0.683-1.524 1.524v1.021h-1.227c-1.26 0-2.286 1.025-2.286 2.286v21.905c0 1.26 1.025 2.286 2.286 2.286zM32.288 24.752h-12.478v-17.705c2.884 0.377 5.121 2.845 5.121 5.831v0.687l-0.181-0.040c-0.196-0.042-0.403-0.007-0.574 0.102s-0.291 0.281-0.334 0.478l-1.213 5.519c-0.090 0.41 0.17 0.816 0.58 0.907l2.621 0.578c0.135 0.029 0.273 0.044 0.411 0.044 0.922 0 1.707-0.631 1.908-1.535l0.702-3.192c0.231-1.048-0.433-2.090-1.484-2.324l-0.912-0.201v-1.023c0-3.827-2.917-6.986-6.644-7.37v-3.551h12.48l-0.002 22.796zM25.166 15.177l1.871 0.412c0.234 0.052 0.376 0.275 0.325 0.508l-0.702 3.191c-0.051 0.231-0.306 0.374-0.507 0.331l-1.873-0.413 0.886-4.030zM5.798 1.956h12.487v3.55c-3.731 0.381-6.652 3.541-6.652 7.371v1.022l-0.914 0.202c-0.509 0.113-0.943 0.416-1.222 0.854-0.281 0.439-0.373 0.961-0.26 1.468l0.7 3.188c0.19 0.892 0.993 1.54 1.909 1.54 0.138 0 0.275-0.015 0.416-0.045l2.61-0.577c0.41-0.091 0.67-0.496 0.58-0.907l-1.213-5.519c-0.043-0.198-0.164-0.37-0.334-0.478s-0.378-0.144-0.574-0.102l-0.174 0.038v-0.686c0-2.988 2.24-5.458 5.128-5.832v17.706h-12.487v-22.796zM12.916 15.177l0.887 4.029-1.863 0.411c-0.229 0.052-0.463-0.1-0.512-0.328l-0.702-3.196c-0.025-0.111-0.005-0.224 0.055-0.319 0.061-0.096 0.157-0.162 0.268-0.187l1.867-0.412zM2.286 5.262c0-0.42 0.342-0.762 0.762-0.762h1.227v20.251c0 0.84 0.684 1.524 1.524 1.524h26.491c0.84 0 1.524-0.683 1.524-1.524v-20.251h1.234c0.42 0 0.762 0.342 0.762 0.762v21.905c0 0.42-0.342 0.762-0.762 0.762h-12.754c-0.335 0-0.63 0.218-0.728 0.538-0.289 0.943-1.147 1.577-2.135 1.577h-0.772c-0.984 0-1.841-0.631-2.138-1.586-0.101-0.315-0.394-0.529-0.725-0.529h-12.747c-0.42 0-0.762-0.342-0.762-0.762v-21.905z"></path>
</symbol>
<symbol id="icon-hwd-support" viewBox="0 0 33 32">
<path d="M2.519 12.558v2.831c0 0.152 0.069 0.295 0.187 0.39 1.907 1.523 4.3 2.362 6.738 2.362 0.73 0 1.46-0.077 2.174-0.224 1.522 0.683 3.142 1.032 4.819 1.032 1.682 0 3.303-0.349 4.819-1.032 3.046 0.624 6.291-0.046 8.911-2.138 0.118-0.094 0.186-0.238 0.186-0.39v-2.831c0-0.415-0.203-0.794-0.566-1.027l-3.811-2.176c0.834-1.073 1.455-2.602 1.563-3.913 0.316-2.256-1.496-4.646-4.105-4.646-1.097 0-2.14 0.458-2.905 1.227-0.026 0.027-0.057 0.049-0.082 0.076-0.024 0.025-0.043 0.054-0.066 0.080-0.015 0.017-0.029 0.036-0.044 0.053-0.746-1.38-2.179-2.232-3.867-2.232-0.164 0-0.325 0.011-0.485 0.028-0.010-0.001-0.018-0.006-0.028-0.006-0.091 0-0.283 0.024-0.385 0.054-0.015 0.004-0.026 0.015-0.040 0.021-1.261 0.259-2.329 1.034-2.969 2.156-0.77-0.911-1.902-1.457-3.133-1.457-3.851 0-5.56 4.612-2.52 8.581l-3.846 2.167c-0.341 0.219-0.545 0.599-0.545 1.014zM21.246 16.828c-0.083 0.041-0.164 0.085-0.248 0.123l-0 0c-0.001 0-0.001 0.001-0.002 0.001-1.431 0.667-2.965 1.006-4.56 1.006-1.59 0-3.124-0.338-4.562-1.007-0.7-0.323-1.376-0.734-2.015-1.221v-2.87c0-0.098 0.047-0.185 0.101-0.221l4.476-2.524c0.557 0.48 1.268 0.832 2.006 0.832 0.71 0 1.477-0.357 2.023-0.843l4.422 2.52c0.082 0.053 0.128 0.139 0.128 0.237v2.87c-0.563 0.429-1.156 0.795-1.768 1.098zM29.285 12.382c0.058 0.037 0.091 0.101 0.091 0.176v2.587c-1.94 1.477-4.274 2.148-6.639 1.98 0.364-0.23 0.76-0.516 1.067-0.76 0.118-0.094 0.187-0.238 0.187-0.39v-3.114c0-0.435-0.215-0.835-0.601-1.087l-2.349-1.339 0.571-0.321c0.693 0.573 1.288 0.744 1.822 0.744 0.653 0 1.34-0.325 1.851-0.759l4.001 2.284zM23.434 1.788c1.36 0 2.555 0.902 2.977 2.142-0.821-0.099-1.623-0.51-2.204-1.142-0.105-0.114-0.254-0.173-0.409-0.155-0.153 0.016-0.289 0.105-0.367 0.239-0.557 0.948-1.471 1.58-2.511 1.76 0-0.001-0-0.002-0-0.003 0.005-0.216-0.008-0.434-0.032-0.653-0.002-0.022-0.005-0.044-0.007-0.067-0.031-0.248-0.105-0.559-0.12-0.609 0.555-0.902 1.586-1.513 2.674-1.513zM20.812 5.644c1.235-0.137 2.351-0.767 3.118-1.762 0.756 0.629 1.715 1.010 2.663 1.056-0.007 1.792-1.45 4.927-3.159 4.927-1.318 0-2.443-1.912-2.863-3.238 0.107-0.341 0.185-0.669 0.242-0.983zM20.911 9.373l-0.873 0.491-0.882-0.502c0.327-0.413 0.627-0.893 0.883-1.413 0.247 0.526 0.542 1.010 0.871 1.425zM19.594 6.465c-0.471 1.427-1.68 3.49-3.153 3.49-1.717 0-3.179-2.864-3.458-4.696 0.074-0.019 2.394 0.126 3.991-2.001 0.81 0.688 1.904 1.143 2.967 1.188 0.013 0.647-0.142 1.406-0.347 2.018zM16.47 0.992c2.739 0 3.261 2.392 3.304 2.442-0.993-0.102-1.9-0.596-2.526-1.276-0.105-0.114-0.258-0.171-0.41-0.154s-0.289 0.106-0.368 0.241c-0.543 0.932-1.394 1.589-2.379 1.868-0.38 0.108-0.791 0.157-1.149 0.154 0.134-1.822 1.573-3.274 3.528-3.274zM12.835 7.938c0.253 0.515 0.555 1.006 0.899 1.438l-0.863 0.487-0.894-0.51c0.339-0.438 0.627-0.929 0.857-1.415zM9.43 1.788c1.108 0 2.124 0.571 2.69 1.514-0.028 0.1-0.105 0.498-0.115 0.548-0.68-0.165-1.305-0.533-1.794-1.062-0.105-0.114-0.254-0.17-0.41-0.154-0.153 0.017-0.289 0.106-0.367 0.24-0.654 1.119-1.853 1.815-3.131 1.815 0.156-1.627 1.496-2.9 3.128-2.9zM6.345 5.678c1.404-0.014 2.73-0.686 3.59-1.796 0.587 0.49 1.285 0.813 2.026 0.961 0.029 0.575 0.176 1.273 0.345 1.789-0.27 0.84-0.788 1.841-1.43 2.505-0.004 0.004-0.010 0.006-0.013 0.010-0.402 0.43-0.974 0.719-1.423 0.719-1.571 0-2.799-2.508-3.094-4.188zM3.496 12.558c0-0.075 0.033-0.139 0.066-0.162l4.056-2.284c0.243 0.206 0.299 0.229 0.348 0.265l-0 0c0.477 0.322 0.915 0.482 1.512 0.482 0.636 0 1.214-0.273 1.724-0.694 0.029-0.023 0.060-0.045 0.087-0.068l0.579 0.33-2.411 1.361c-0.36 0.236-0.576 0.636-0.576 1.071v3.114c0 0.152 0.069 0.296 0.187 0.39 0.312 0.249 0.717 0.539 1.067 0.761-2.399 0.166-4.733-0.528-6.639-1.98v-2.587z"></path>
<path d="M31.359 20.781c-0.601-0.384-1.341-0.423-1.978-0.11l-6.030 2.956c-0.021-1.145-0.942-2.072-2.076-2.072l-3.458 0.001c-1.705-1.504-3.884-2.425-5.865-2.473-1.954-0.047-3.708-0.060-4.526-0.064v-1.002h-6.87v11.517h6.87v-1.379c1.884 1.097 6.838 3.845 9.189 3.845 0.053 0 0.105-0.001 0.155-0.004 4.135-0.235 13.886-7.198 14.529-7.661 0.629-0.37 1.019-1.056 1.019-1.796 0-0.719-0.358-1.376-0.959-1.758zM6.448 28.542h-4.916v-9.533h4.916v9.533zM30.796 23.484c-0.015 0.008-0.030 0.017-0.043 0.028-0.101 0.073-10.131 7.271-14.037 7.494-0.039 0.002-0.078 0.003-0.119 0.003-2.062 0-7.090-2.753-9.171-4.001v-6.997c0.815 0.004 2.559 0.017 4.502 0.064 1.81 0.044 3.82 0.921 5.376 2.346l0.139 0.128 3.831-0.001c0.608 0 1.103 0.502 1.103 1.119s-0.494 1.119-1.102 1.119h-7.038v0.992h7.038c0.674 0 1.269-0.333 1.649-0.839l6.882-3.374c0.338-0.167 0.715-0.146 1.034 0.057s0.501 0.537 0.501 0.918c0 0.391-0.209 0.753-0.545 0.945z"></path>
<path d="M16.925 12.159h-0.977v0.92h0.977v-0.92z"></path>
<path d="M16.925 13.992h-0.977v0.92h0.977v-0.92z"></path>
<path d="M16.925 15.826h-0.977v0.92h0.977v-0.92z"></path>
</symbol>
<symbol id="icon-hwd-female" viewBox="0 0 26 32">
<path d="M-0.101 31.759c3.385 0 22.969 0 26.35 0 0.13-3.055-0.085-8.123-1.932-10.535l-0.067-0.087-4.037-2.060c0.088-0.301 0.131-0.576 0.148-0.778 0.020-0.243-0.013-0.471-0.098-0.678-0.666-1.62-2.075-2.473-2.851-2.836 0.236-0.484 0.389-1.003 0.462-1.534 0.439-0.126 0.792-0.479 0.908-0.951l0.471-1.946c0.083-0.343 0.031-0.699-0.148-1.002-0.077-0.131-0.177-0.24-0.289-0.334 1.329-3.068-0.897-5.96-1.018-6.113-2.41-2.649-5.455-2.153-5.615-2.124-4.394 0.935-6.089 4.358-5.132 8.372-0.284 0.319-0.403 0.764-0.298 1.2l0.474 1.948c0.115 0.468 0.465 0.82 0.901 0.948 0.134 0.972 0.539 1.851 1.134 2.559v1.543c-6.305 3.282-2.31 1.188-7.363 3.786-0.010 0.049-2.371 2.599-2.020 10.159l0.021 0.462zM25.333 30.789h-4.337v-1.852l2.868-6.674c1.437 2.424 1.49 7.053 1.468 8.526zM19.415 18.216c-0.167 1.954-1.222 1.363-1.872 2.869-0.512-0.572-0.666-1.258-0.528-1.993 0.249-1.349-0.561-1.749-0.361-3.166l0.030-0.032v-0.005c0.017-0.020 0.177-0.213 0.223-0.274 1.716 0.76 2.542 2.174 2.508 2.6zM10.21 16.68c0.797 0.562 1.758 0.893 2.792 0.893 0.974 0 1.899-0.288 2.692-0.819 0.11 1.114 0.538 1.337 0.386 2.157-0.029 0.152-0.044 0.302-0.053 0.45l-2.953 3.384-3.775-4.327 0.911-0.484v-1.254zM9.023 12.539v-1.876c0-0.691 0-3.431 0-3.296 0.46-0.864 1.086-1.491 1.865-1.866 2.086 1.2 4.486 2.99 6.096 4.791-0.002 2.294 0.006 2.301-0.009 2.489l-0.001 0.012c-0.126 2.084-1.811 3.811-3.972 3.811-2.101 0-3.846-1.677-3.972-3.831-0.006-0.077-0.008-0.155-0.008-0.233zM8.434 18.886l4.64 5.317 3.115-3.569c0.071 0.208 0.171 0.405 0.285 0.595l-3.4 4.322-5.070-6.446 0.431-0.22zM17.934 11.759v-1.498c0.042-0.049 0.396-0.461 0.354-0.413 0.020 0.758 0.1-0.137-0.354 1.911zM12.357 1.734c0.188 0.012 2.72-0.391 4.721 1.804 0.079 0.1 1.708 2.234 1.053 4.567-0.224-1.038-0.614-2.369-1.231-3.004l-0.674 0.683c0.609 0.627 1.009 2.537 1.162 3.527-2.794-2.972-6.399-4.853-6.448-4.885-0.181 0.114-1.706 0.409-2.814 2.598l-0.053 0.105v1.607c-0.048 0.001-0.187 0.002-0.14 0.002-0.704-3.454 0.644-6.198 4.424-7.004zM7.833 9.735l0.24 0.987v1.038l-0.398-1.639c-0.058-0.244 0.12-0.337 0.159-0.386zM7.135 19.55l5.94 7.551 4.019-5.109c0.437 0.398 0.647 0.454 1.574 0.939l-0.313-1.078c-0.079-0.274 0.235-0.713 0.424-0.914 0.423-0.233 0.776-0.566 1.040-0.977l3.279 1.674-3.051 7.1v2.055h-13.946v-2.055l-3.052-7.099 4.086-2.085zM2.282 22.265l2.869 6.673v1.852h-4.337c-0.022-1.473 0.032-6.099 1.468-8.524z"></path>
</symbol>
<symbol id="icon-hwd-reading" viewBox="0 0 44 32">
<path d="M19.366 4.608h-13.473v1.021h13.473v-1.021z"></path>
<path d="M19.366 8.416h-11.456v1.021h11.456v-1.021z"></path>
<path d="M19.366 12.224h-13.473v1.021h13.473v-1.021z"></path>
<path d="M19.366 16.032h-11.456v1.021h11.456v-1.021z"></path>
<path d="M19.366 19.84h-13.473v1.021h13.473v-1.021z"></path>
<path d="M19.366 23.648h-11.456v1.021h11.456v-1.021z"></path>
<path d="M37.862 4.608h-13.473v1.021h13.473v-1.021z"></path>
<path d="M35.844 8.416h-11.456v1.021h11.456v-1.021z"></path>
<path d="M37.862 12.224h-13.473v1.021h13.473v-1.021z"></path>
<path d="M35.844 16.032h-11.456v1.021h11.456v-1.021z"></path>
<path d="M37.862 19.84h-13.473v1.021h13.473v-1.021z"></path>
<path d="M35.844 23.648h-11.456v1.021h11.456v-1.021z"></path>
<path d="M42.726 3.445h-1.85v-2.812c0-0.282-0.226-0.511-0.504-0.511h-15.079c-1.471 0-2.747 0.805-3.416 2.011-0.669-1.206-1.946-2.011-3.417-2.011h-15.079c-0.278 0-0.504 0.229-0.504 0.511v2.812h-1.85c-0.278 0-0.504 0.229-0.504 0.511v27.411c0 0.282 0.226 0.511 0.504 0.511 5.064 0 36.616 0 41.698 0 0.278 0 0.504-0.229 0.504-0.511v-27.411c0-0.282-0.226-0.511-0.504-0.511zM25.294 1.144h14.574c0 4.573 0 16.619 0 27.35h-15.65c-0.694 0-1.387 0.296-1.836 0.68v-25.089c0-1.63 1.289-2.942 2.912-2.942zM3.886 1.144h14.574c1.577 0 2.854 1.243 2.906 2.829 0.001 0.022 0.003 0.091 0.006 0.112v25.087c-0.447-0.383-1.134-0.678-1.829-0.678h-15.657c0-10.728 0-22.779 0-27.35zM1.532 4.467h1.345v24.538c0 0.282 0.226 0.511 0.504 0.511h16.161c0.769 0 1.512 0.511 1.75 1.341h-19.761v-26.39zM42.222 30.856h-19.76c0.239-0.834 0.975-1.341 1.756-1.341h16.155c0.278 0 0.504-0.229 0.504-0.511v-24.538h1.345v26.39z"></path>
</symbol>
<symbol id="icon-hwd-online" viewBox="0 0 32 32">
<path d="M29.547-0.128h-15.418c-1.004 0-1.82 0.834-1.82 1.859v6.518l-11.454 4.91c-0.13 0.056-0.218 0.181-0.228 0.324s0.059 0.28 0.18 0.354l1.461 0.893v9.515c-0.747 0.174-1.308 0.857-1.308 1.674v0.917c0 0.21 0.167 0.381 0.373 0.381h2.616c0.206 0 0.373-0.171 0.373-0.381v-0.917c0-0.816-0.561-1.498-1.308-1.673v-9.060l1.155 0.706c-0.035 0.272-0.005-0.474-0.016 4.43 0 1.612 4.043 2.476 8.157 2.525v7.425c0 0.384 0.115 0.74 0.312 1.036 0.327 0.494 0.881 0.82 1.508 0.82h15.418c1.003 0 1.818-0.833 1.818-1.857 0 0.051-0.002-1.573 0-28.54 0-1.011-0.819-1.859-1.817-1.859zM3.576 25.918v0.536h-1.87v-0.536c0-0.528 0.418-0.957 0.933-0.957 0.517 0 0.937 0.43 0.937 0.957zM29.547 31.364h-15.418c-0.37 0-0.697-0.191-0.89-0.482-0.116-0.175-0.183-0.385-0.183-0.612v-2.574h17.561v2.575c0 0.597-0.487 1.092-1.070 1.092zM30.616 26.935h-17.562v-4.086c2.009-0.023 8.161-0.475 8.161-2.527-0.002-3.081 0.005-4.33-0.009-4.436l3.35-2.049c0.121-0.074 0.19-0.211 0.18-0.354s-0.098-0.268-0.228-0.324l-11.454-4.91v-3.182h17.562v21.868zM12.682 17.792c-2.069 0-6.053 0.273-7.784 1.427 0.011-3.53-0.12-3.3 0.306-3.6 1.075-0.809 4.15-1.373 7.478-1.373 1.451 0 7.788 0.408 7.788 1.778v3.195c-1.747-1.165-5.71-1.428-7.788-1.428zM13.055 1.731c0-0.604 0.481-1.095 1.072-1.095h15.418c0.592 0 1.070 0.498 1.070 1.095v2.574h-17.561v-2.574zM12.682 8.915l10.859 4.655-2.691 1.644c-1.43-1.449-6.162-1.73-8.168-1.73-2.008 0-6.741 0.282-8.168 1.73l-2.692-1.645 10.86-4.655zM4.898 20.321c0-0.617 2.673-1.767 7.784-1.767 5.113 0 7.788 1.151 7.788 1.767s-2.675 1.768-7.788 1.768c-5.11 0-7.784-1.151-7.784-1.768z"></path>
<path d="M21.837 28.271c-0.68 0-1.234 0.565-1.234 1.26s0.553 1.26 1.234 1.26c0.68 0 1.234-0.565 1.234-1.26s-0.553-1.26-1.234-1.26zM21.837 30.030c-0.269 0-0.488-0.224-0.488-0.498s0.219-0.498 0.488-0.498c0.269 0 0.488 0.223 0.488 0.498s-0.219 0.498-0.488 0.498z"></path>
<path d="M23.26 2.090h-2.846v0.762h2.846v-0.762z"></path>
</symbol>
<symbol id="icon-hwd-program" viewBox="0 0 30 32">
<path d="M29.931 4.961c0-0.001-0.001-0.001-0.001-0.002-0.007-0.016-0.015-0.031-0.024-0.045-0.001-0.001-0.002-0.002-0.002-0.003-0.010-0.015-0.021-0.029-0.034-0.042l-4.771-4.806c-0.012-0.013-0.026-0.023-0.040-0.033-0.003-0.002-0.006-0.004-0.009-0.006-0.012-0.007-0.023-0.014-0.036-0.019-0.004-0.002-0.007-0.003-0.011-0.005-0.031-0.013-0.065-0.019-0.098-0.020-0.002 0-0.004-0-0.005-0h-21.018c-0.156 0-0.282 0.127-0.282 0.284v29.311c0 0.019 0.002 0.037 0.006 0.056 0.002 0.008 0.005 0.015 0.007 0.023 0.003 0.010 0.006 0.020 0.009 0.030 0.004 0.009 0.009 0.017 0.013 0.026 0.004 0.007 0.008 0.016 0.012 0.023 0.010 0.014 0.021 0.028 0.032 0.040 0.001 0.001 0.001 0.002 0.003 0.003l2.149 2.164c0.11 0.111 0.288 0.111 0.399 0l1.95-1.963 1.95 1.963c0.055 0.056 0.127 0.083 0.2 0.083s0.144-0.027 0.199-0.083l1.949-1.963 1.95 1.963c0.11 0.111 0.289 0.111 0.399 0l1.949-1.963 1.949 1.963c0.11 0.111 0.289 0.111 0.398 0l1.951-1.963 1.949 1.963c0.055 0.056 0.127 0.083 0.199 0.083s0.144-0.027 0.2-0.083l1.949-1.963 1.951 1.963c0.11 0.111 0.289 0.111 0.398 0l2.149-2.164c0.004-0.004 0.007-0.009 0.011-0.014 0.008-0.009 0.017-0.019 0.023-0.029 0.007-0.009 0.011-0.020 0.016-0.030 0.003-0.007 0.007-0.012 0.009-0.019 0.006-0.013 0.009-0.026 0.012-0.039 0.001-0.005 0.003-0.009 0.004-0.013 0.004-0.019 0.006-0.038 0.006-0.058v-24.503c-0.001-0.037-0.008-0.074-0.023-0.109zM25.182 0.949l3.808 3.835h-3.808v-3.835zM29.389 29.456l-1.866 1.88-1.951-1.963c-0.11-0.111-0.288-0.111-0.398 0l-1.949 1.963-1.949-1.963c-0.11-0.111-0.289-0.111-0.399 0l-1.951 1.963-1.949-1.962c0-0-0-0.001-0-0.001-0.055-0.055-0.127-0.083-0.2-0.083s-0.144 0.028-0.199 0.083c-0 0-0 0-0 0l-1.949 1.963-1.95-1.963c-0.11-0.111-0.288-0.111-0.399 0l-1.949 1.963-1.95-1.963c-0.11-0.111-0.288-0.111-0.399 0l-1.95 1.963-1.867-1.88v-28.909h20.453v4.522c0 0.157 0.126 0.284 0.282 0.284h4.488l0 24.103z"></path>
<path d="M6.268 3.234h9.235c0.156 0 0.282-0.127 0.282-0.284s-0.126-0.284-0.282-0.284h-9.235c-0.156 0-0.282 0.127-0.282 0.284s0.126 0.284 0.282 0.284z"></path>
<path d="M6.268 4.991h14.81c0.156 0 0.282-0.127 0.282-0.284s-0.126-0.284-0.282-0.284h-14.81c-0.156 0-0.282 0.127-0.282 0.284s0.126 0.284 0.282 0.284z"></path>
<path d="M5.986 6.568v9.199c0 0.157 0.126 0.284 0.282 0.284h21.018c0.156 0 0.282-0.127 0.282-0.284v-9.199c0-0.157-0.126-0.284-0.282-0.284h-21.018c-0.156 0-0.282 0.127-0.282 0.284zM12.219 6.852h14.785v2.445h-14.785v-2.445zM12.219 9.865h14.785v2.444h-14.785v-2.444zM12.219 12.877h14.785v2.605h-14.785v-2.605zM6.55 6.852h5.105v2.445h-5.105v-2.445zM6.55 9.865h5.105v2.444h-5.105v-2.444zM6.55 12.877h5.105v2.605h-5.105v-2.605z"></path>
<path d="M27.286 17.329h-21.018c-0.156 0-0.282 0.127-0.282 0.284v9.198c0 0.157 0.126 0.284 0.282 0.284s0.282-0.127 0.282-0.284v-2.889h5.105v2.889c0 0.157 0.126 0.284 0.282 0.284s0.282-0.127 0.282-0.284v-2.889h14.785v2.889c0 0.157 0.126 0.284 0.282 0.284s0.282-0.127 0.282-0.284v-9.198c0.001-0.157-0.125-0.284-0.281-0.284zM11.655 23.354h-5.105v-2.444h5.105v2.444zM11.655 20.342h-5.105v-2.444h5.105v2.444zM27.004 23.354h-14.785v-2.444h14.785v2.444zM27.004 20.342h-14.785v-2.444h14.785v2.444z"></path>
<path d="M2.264-0.021c-0.156 0-0.282 0.127-0.282 0.284v29.311c0 0.157 0.126 0.284 0.282 0.284s0.282-0.127 0.282-0.284v-29.311c0-0.157-0.126-0.284-0.282-0.284z"></path>
<path d="M0.713-0.021c-0.156 0-0.282 0.127-0.282 0.284v29.311c0 0.157 0.126 0.284 0.282 0.284s0.282-0.127 0.282-0.284v-29.311c0-0.157-0.126-0.284-0.282-0.284z"></path>
</symbol>
</defs>
</svg>
