<svg aria-hidden="true" style="position: absolute; width: 0; height: 0; overflow: hidden;" version="1.1"
    xmlns="http://www.w3.org/2000/svg" xmlns:xlink="http://www.w3.org/1999/xlink">
    <defs>
        <symbol id="icon-fire" viewBox="0 0 26 32">
            <path fill="#ff6b09" style="fill: var(--color2, #ff6b09)"
                d="M22.642 16.003c-0.275-0.613-0.654-1.216-1.208-1.912-1.398-1.749-1.824-5.649-1.829-5.686-0.019-0.187-0.152-0.341-0.327-0.397-0.18-0.056-0.374-0.005-0.502 0.136-1.668 1.856-0.967 4.723-0.588 5.869 0.104 0.313 0.218 0.683 0.298 1.057 0.616 3.025-0.573 4.396-0.853 4.671-0.27 0.075-0.455 0.037-0.625-0.145-0.588-0.641-0.782-2.74-0.507-5.476 0.057-0.556 0.043-1.057-0.038-1.524-0.58-3.362-2.704-5.519-3.245-6.275-1.488-2.188-1.639-5.831-1.644-5.864-0.005-0.173-0.104-0.327-0.261-0.402-0.152-0.075-0.336-0.065-0.479 0.033-2.483 1.679-2.269 5.724-1.924 7.982 0.081 0.524 0.237 1.057 0.507 1.73 0.962 2.408-0.19 5.518-0.199 5.546s-0.019 0.051-0.024 0.079c-0.147 0.767-0.393 1.225-0.668 1.225-0.028 0-0.057-0.005-0.090-0.014-0.336-0.070-0.512-0.426-0.516-0.734-0.019-3.989-4.041-5.331-4.084-5.345-0.18-0.056-0.379-0.005-0.502 0.14-0.128 0.145-0.152 0.346-0.066 0.514 0.047 0.098 0.199 0.528 0.095 2.048-0.090 1.365-0.341 2.717-0.744 4.012-0.957 3.105-0.805 6.046-0.796 6.187 0.736 7.964 12.245 9.359 19.075 4.873 0.748-0.491 1.36-1.052 1.81-1.669 2.521-3.46 1.038-8.16-0.066-10.657zM5.135 23.611c0.014 0.257-0.185 0.477-0.445 0.491h-0.028c-0.251 0-0.46-0.192-0.474-0.44-0.043-0.683-0.033-1.398 0.019-2.174 0.019-0.257 0.246-0.449 0.507-0.435 0.261 0.019 0.46 0.243 0.441 0.5-0.052 0.739-0.062 1.412-0.019 2.058zM5.368 19.468c-0.028 0.238-0.232 0.412-0.469 0.412-0.019 0-0.038 0-0.062-0.005-0.256-0.033-0.441-0.262-0.412-0.519l0.227-1.805c0.033-0.252 0.265-0.435 0.531-0.407 0.261 0.033 0.445 0.267 0.412 0.524l-0.227 1.8z">
            </path>
            <path fill="#ff6b09" style="fill: var(--color2, #ff6b09)"
                d="M19.437 6.397c-0.258-0.040-0.436-0.278-0.396-0.533 0.030-0.19 0.201-1.163 0.665-1.652 0.179-0.189 0.478-0.198 0.67-0.021s0.2 0.472 0.021 0.661c-0.197 0.207-0.364 0.8-0.42 1.154-0.040 0.252-0.279 0.429-0.541 0.39z">
            </path>
            <path fill="#ff6b09" style="fill: var(--color2, #ff6b09)"
                d="M2.164 8.727c-0.091-0.348-0.316-0.921-0.532-1.109-0.197-0.17-0.217-0.466-0.044-0.66s0.471-0.214 0.669-0.043c0.511 0.442 0.777 1.393 0.826 1.579 0.065 0.25-0.088 0.504-0.341 0.569-0.259 0.064-0.513-0.090-0.577-0.336z">
            </path>
        </symbol>
    </defs>
</svg>