<svg aria-hidden="true" style="position:absolute;width:0;height:0;overflow:hidden" xmlns="http://www.w3.org/2000/svg"><defs><symbol id="icon-cross" viewBox="0 0 32 32"><path fill="none" stroke="#fff" style="stroke:var(--color1, #fff)" stroke-width="3.556" d="M1.778 30.221 30.222 1.777M30.222 30.221 1.778 1.777"/></symbol><symbol id="icon-menu" viewBox="0 0 32 32"><path d="M6.4 11.733V9.6h19.2v2.133H6.4zm0 5.334h19.2v-2.133H6.4v2.133zm0 5.333h19.2v-2.133H6.4V22.4z"/></symbol><symbol id="icon-phone" viewBox="0 0 34 32"><path fill="#ff6b09" style="fill:var(--color2, #ff6b09)" d="M4.902.003a2.115 2.115 0 0 0-1.465.678L.706 3.65c.004-.009-.011-.008-.088.101a.67.67 0 0 0-.095.184C-.589 7.437.157 11.289 1.972 14.953S6.683 22.123 10.007 25s7.075 5.128 10.651 6.244c3.576 1.116 7.044 1.102 9.614-.742a.626.626 0 0 0 .078-.067c.067-.067.07-.075.059-.065l.01-.013 2.718-2.956a2.086 2.086 0 0 0-.141-2.956l-6.448-5.799a2.143 2.143 0 0 0-2.989.138l-2.918 3.173c-2.368-.678-4.393-1.828-6.34-3.579s-3.297-3.637-4.203-5.905L13.015 9.3a2.086 2.086 0 0 0-.14-2.956L6.427.545A2.128 2.128 0 0 0 4.903.006h-.001zm.061 1.301c.2-.009.403.06.569.209l6.448 5.799a.76.76 0 0 1 .053 1.104L8.809 11.92a.652.652 0 0 0-.131.666c.979 2.641 2.557 4.807 4.729 6.761s4.5 3.304 7.251 4.017a.676.676 0 0 0 .659-.192l3.225-3.505a.78.78 0 0 1 1.116-.051l6.449 5.8a.76.76 0 0 1 .052 1.103l-2.696 2.931c-2.109 1.497-5.08 1.581-8.406.542-3.34-1.043-6.966-3.202-10.175-5.98s-6.002-6.169-7.718-9.633C1.465 10.95.849 7.484 1.783 4.429l2.634-2.862a.792.792 0 0 1 .547-.261z"/></symbol><symbol id="icon-arrow" viewBox="0 0 54 32"><path fill="#ff6b09" style="fill:var(--color2, #ff6b09)" d="M2 14a2 2 0 1 0 0 4v-4zm51.414 3.414a2 2 0 0 0 0-2.828L40.686 1.858a2 2 0 1 0-2.828 2.828L49.172 16 37.858 27.314a2 2 0 1 0 2.828 2.828l12.728-12.728zM2 18h50v-4H2v4z"/></symbol><symbol id="icon-vk" viewBox="0 0 32 32"><path d="M27.541 18.46c1.061 1.036 2.182 2.011 3.134 3.152.421.507.819 1.03 1.123 1.619.432.836.041 1.757-.709 1.807l-4.662-.002c-1.202.1-2.162-.384-2.968-1.206-.645-.657-1.243-1.357-1.864-2.037-.255-.278-.521-.539-.839-.746-.636-.413-1.189-.287-1.552.377-.37.675-.454 1.423-.491 2.175-.05 1.098-.382 1.386-1.484 1.437-2.357.111-4.593-.245-6.671-1.434-1.832-1.048-3.252-2.528-4.489-4.203-2.407-3.261-4.25-6.845-5.907-10.53-.373-.83-.1-1.276.816-1.291 1.521-.03 3.041-.027 4.564-.002.618.009 1.027.364 1.266.947.823 2.023 1.83 3.948 3.093 5.732.337.475.68.95 1.168 1.284.541.37.952.248 1.207-.355.161-.382.232-.793.268-1.202.121-1.407.136-2.812-.075-4.214-.13-.875-.623-1.442-1.496-1.607-.446-.084-.379-.25-.164-.505.375-.439.727-.712 1.43-.712h5.269c.829.164 1.014.536 1.127 1.371l.004 5.852c-.009.323.161 1.282.743 1.496.466.152.773-.22 1.052-.516 1.261-1.339 2.162-2.921 2.966-4.559.357-.72.664-1.469.961-2.216.22-.555.566-.828 1.191-.816l5.071.005c.15 0 .302.002.448.027.855.146 1.089.513.825 1.348-.416 1.309-1.225 2.4-2.016 3.496-.846 1.17-1.75 2.3-2.589 3.477-.77 1.075-.709 1.617.248 2.55z"/></symbol><symbol id="icon-galka" viewBox="0 0 41 32"><path style="fill:var(--color2, #ff6b09)" d="M34.457 1.514a29.389 29.389 0 0 0-4.265 2.379c-2.731 1.797-5.228 3.936-7.57 6.218-2.341 2.287-4.52 4.735-6.581 7.28-.515.636-2.823 3.47-2.823 3.47L3.622 6.481-.001 16.523 12.976 32c1.26-2.551 2.473-5.07 3.662-7.258.296-.556.605-1.08.901-1.612 0 0 1.523-2.677 1.923-3.352 1.602-2.697 3.333-5.325 5.239-7.821 1.908-2.491 3.983-4.87 6.335-6.961a28.328 28.328 0 0 1 3.751-2.872c1.332-.848 2.747-1.591 4.261-2.125-1.575.31-3.111.848-4.592 1.514z"/></symbol><symbol id="icon-how6" viewBox="0 0 39 32"><path fill="#ff6b09" style="fill:var(--color2, #ff6b09)" d="M3.047 29.453h12.23a3.738 3.738 0 0 0 3.38 2.116h.772c1.465 0 2.761-.83 3.381-2.116h12.237a2.289 2.289 0 0 0 2.286-2.286V5.262a2.289 2.289 0 0 0-2.286-2.286h-1.234V1.955c0-.84-.684-1.524-1.524-1.524H5.798c-.84 0-1.524.683-1.524 1.524v1.021H3.047A2.289 2.289 0 0 0 .761 5.262v21.905a2.289 2.289 0 0 0 2.286 2.286zm29.241-4.701H19.81V7.047c2.884.377 5.121 2.845 5.121 5.831v.687l-.181-.04a.759.759 0 0 0-.908.58l-1.213 5.519c-.09.41.17.816.58.907l2.621.578a1.946 1.946 0 0 0 2.319-1.492l.702-3.192a1.954 1.954 0 0 0-1.484-2.324l-.912-.201v-1.023c0-3.827-2.917-6.986-6.644-7.37V1.956h12.48l-.002 22.796zm-7.122-9.575 1.871.412a.422.422 0 0 1 .325.508l-.702 3.191a.45.45 0 0 1-.507.331l-1.873-.413.886-4.03zM5.798 1.956h12.487v3.55c-3.731.381-6.652 3.541-6.652 7.371v1.022l-.914.202a1.935 1.935 0 0 0-1.222.854 1.928 1.928 0 0 0-.26 1.468l.7 3.188a1.96 1.96 0 0 0 2.325 1.495l2.61-.577a.762.762 0 0 0 .58-.907l-1.213-5.519c-.043-.198-.164-.37-.334-.478s-.378-.144-.574-.102l-.174.038v-.686c0-2.988 2.24-5.458 5.128-5.832v17.706H5.798V1.953zm7.118 13.221.887 4.029-1.863.411a.433.433 0 0 1-.512-.328l-.702-3.196a.42.42 0 0 1 .323-.506l1.867-.412zM2.286 5.262c0-.42.342-.762.762-.762h1.227v20.252c0 .84.684 1.524 1.524 1.524H32.29c.84 0 1.524-.683 1.524-1.524V4.5h1.234c.42 0 .762.342.762.762v21.905c0 .42-.342.762-.762.762H22.294a.76.76 0 0 0-.728.538 2.22 2.22 0 0 1-2.135 1.577h-.772a2.229 2.229 0 0 1-2.138-1.586.762.762 0 0 0-.725-.529H3.049a.763.763 0 0 1-.762-.762V5.262z"/></symbol><symbol id="icon-how5" viewBox="0 0 27 32"><path fill="#ff6b09" style="fill:var(--color2, #ff6b09)" d="M-.102 31.759h26.785c.133-3.055-.086-8.122-1.964-10.535l-.068-.087-4.104-2.06c.089-.301.133-.576.151-.778a1.43 1.43 0 0 0-.1-.678c-.677-1.62-2.11-2.472-2.898-2.836.24-.484.395-1.003.47-1.534.446-.126.805-.479.923-.951l.479-1.946a1.314 1.314 0 0 0-.151-1.002 1.31 1.31 0 0 0-.294-.334c1.351-3.068-.911-5.96-1.035-6.113C15.642.256 12.547.752 12.384.781c-4.466.935-6.19 4.358-5.217 8.372a1.317 1.317 0 0 0-.302 1.2l.481 1.948c.117.468.473.82.916.948a5.014 5.014 0 0 0 1.152 2.559v1.543c-6.409 3.282-2.348 1.188-7.484 3.786-.01.048-2.41 2.599-2.053 10.159l.022.462zm25.854-.97h-4.408v-1.852l2.916-6.675c1.461 2.424 1.515 7.053 1.493 8.526zm-6.017-12.573c-.17 1.954-1.242 1.364-1.903 2.869-.52-.572-.677-1.258-.537-1.993.253-1.349-.57-1.749-.367-3.166l.031-.032v-.005c.017-.02.18-.213.227-.274 1.744.76 2.584 2.174 2.55 2.6zm-9.356-1.536a4.963 4.963 0 0 0 5.574.074c.112 1.114.547 1.337.393 2.157a3.536 3.536 0 0 0-.054.45l-3.002 3.384-3.838-4.327.926-.484V16.68zm-1.207-4.14V7.368c.467-.864 1.104-1.491 1.896-1.866 2.12 1.2 4.56 2.99 6.197 4.791-.002 2.294.006 2.301-.009 2.489l-.001.012c-.128 2.083-1.841 3.811-4.038 3.811-2.136 0-3.909-1.677-4.037-3.831a2.578 2.578 0 0 1-.008-.233zm-.598 6.346 4.716 5.317 3.166-3.569c.072.208.174.405.29.595l-3.456 4.322-5.154-6.446.438-.22zm9.656-7.127v-1.498l.36-.413c.02.758.102-.137-.36 1.911zM12.562 1.734c.192.012 2.765-.391 4.799 1.804.08.1 1.736 2.234 1.071 4.567-.228-1.038-.624-2.369-1.252-3.004l-.685.683c.619.627 1.026 2.537 1.181 3.527-2.84-2.972-6.504-4.853-6.555-4.885-.184.114-1.734.409-2.86 2.598l-.054.105v1.607l-.142.002c-.716-3.454.655-6.198 4.497-7.004zM7.963 9.736l.244.987v1.038l-.405-1.639c-.059-.244.122-.337.161-.386zm-.71 9.814 6.038 7.551 4.085-5.109c.444.398.658.454 1.6.939l-.318-1.078c-.081-.274.239-.713.431-.914.43-.233.789-.566 1.058-.977l3.333 1.674-3.101 7.1v2.055H6.203v-2.055L3.1 21.637l4.153-2.085zm-4.932 2.715 2.916 6.673v1.852H.829c-.022-1.473.033-6.099 1.492-8.524z"/></symbol><symbol id="icon-how4" viewBox="0 0 33 32"><path fill="#ff6b09" style="fill:var(--color2, #ff6b09)" d="M1.994 12.558v2.831a.5.5 0 0 0 .189.39 11.099 11.099 0 0 0 6.837 2.362c.74 0 1.482-.077 2.206-.224a12.01 12.01 0 0 0 4.89 1.032c1.707 0 3.351-.349 4.89-1.032 3.091.624 6.384-.046 9.042-2.138a.495.495 0 0 0 .189-.39v-2.831a1.2 1.2 0 0 0-.575-1.027l-3.867-2.176c.846-1.073 1.476-2.602 1.586-3.913.321-2.256-1.518-4.646-4.165-4.646a4.208 4.208 0 0 0-2.948 1.227c-.027.027-.058.049-.084.076-.024.025-.043.054-.067.08-.016.017-.029.036-.044.053C19.316.852 17.862 0 16.149 0c-.166 0-.33.011-.492.028-.01-.001-.018-.006-.028-.006-.092 0-.287.024-.391.054-.015.004-.026.015-.041.021a4.485 4.485 0 0 0-3.013 2.156A4.176 4.176 0 0 0 9.005.796c-3.908 0-5.642 4.612-2.557 8.581l-3.903 2.167a1.192 1.192 0 0 0-.553 1.014zm19.003 4.27c-.084.041-.167.085-.251.123l-.002.001a11.007 11.007 0 0 1-4.627 1.006 11.026 11.026 0 0 1-6.674-2.228v-2.87c0-.098.047-.184.102-.221l4.542-2.524c.565.48 1.287.832 2.035.832.721 0 1.499-.357 2.052-.843l4.487 2.52c.083.053.13.139.13.237v2.87c-.571.429-1.173.795-1.794 1.098zm8.157-4.446a.201.201 0 0 1 .092.176v2.587a9.988 9.988 0 0 1-6.737 1.98c.369-.23.771-.516 1.083-.76a.496.496 0 0 0 .19-.39v-3.114c0-.435-.218-.835-.61-1.087l-2.383-1.339.58-.321c.703.573 1.307.744 1.848.744.662 0 1.36-.325 1.878-.759l4.06 2.284zM23.217 1.788c1.38 0 2.593.902 3.021 2.142a3.703 3.703 0 0 1-2.237-1.142.494.494 0 0 0-.788.084 3.684 3.684 0 0 1-2.548 1.76v-.003a4.786 4.786 0 0 0-.162-1.329c.563-.902 1.609-1.513 2.713-1.513zm-2.661 3.856a4.642 4.642 0 0 0 3.164-1.762 4.684 4.684 0 0 0 2.702 1.056c-.007 1.792-1.471 4.927-3.206 4.927-1.337 0-2.479-1.912-2.905-3.238a8.15 8.15 0 0 0 .245-.983zm.101 3.729-.886.491-.895-.502c.332-.413.636-.893.896-1.413.25.526.55 1.01.884 1.425zM19.32 6.465c-.478 1.427-1.705 3.49-3.199 3.49-1.742 0-3.226-2.864-3.509-4.696.075-.019 2.43.126 4.05-2.001.822.688 1.932 1.143 3.011 1.188.013.647-.144 1.406-.352 2.018zM16.15.992c2.78 0 3.309 2.392 3.352 2.442a4.123 4.123 0 0 1-2.563-1.276.497.497 0 0 0-.789.087 4.073 4.073 0 0 1-3.58 2.022c.136-1.822 1.596-3.274 3.58-3.274zm-3.689 6.946c.257.515.563 1.006.913 1.438l-.875.487-.907-.51a7.76 7.76 0 0 0 .87-1.415zm-3.455-6.15c1.125 0 2.155.571 2.729 1.514-.029.1-.106.498-.117.548a3.675 3.675 0 0 1-1.821-1.062.496.496 0 0 0-.788.086 3.712 3.712 0 0 1-3.177 1.815c.158-1.627 1.518-2.9 3.174-2.9zm-3.13 3.89a4.708 4.708 0 0 0 3.642-1.796 4.627 4.627 0 0 0 2.056.961c.029.575.179 1.273.35 1.789-.274.84-.799 1.841-1.451 2.505l-.014.01c-.408.43-.988.719-1.444.719-1.594 0-2.841-2.508-3.14-4.188zm-2.891 6.88c0-.075.033-.139.067-.162l4.116-2.284c.247.206.304.229.353.265.484.322.928.482 1.534.482.645 0 1.232-.273 1.749-.694.029-.023.06-.045.088-.068l.587.33-2.446 1.361a1.269 1.269 0 0 0-.584 1.071v3.114c0 .152.07.296.19.39.317.249.727.539 1.083.761a10.024 10.024 0 0 1-6.737-1.98v-2.587z"/><path fill="#ff6b09" style="fill:var(--color2, #ff6b09)" d="M31.259 20.781a2.063 2.063 0 0 0-2.007-.11l-6.119 2.956a2.11 2.11 0 0 0-2.107-2.071l-3.509.001c-1.73-1.504-3.941-2.425-5.952-2.473-1.983-.047-3.763-.06-4.593-.064v-1.002H0v11.517h6.972v-1.379c1.912 1.097 6.939 3.845 9.325 3.845.054 0 .107-.001.158-.004 4.196-.235 14.091-7.198 14.743-7.661a2.08 2.08 0 0 0 1.034-1.796c0-.719-.364-1.376-.973-1.758zM5.98 28.542H.992v-9.533H5.98v9.533zm24.707-5.058a.296.296 0 0 0-.044.028c-.102.073-10.281 7.271-14.244 7.494a2.354 2.354 0 0 1-.121.003c-2.092 0-7.194-2.753-9.307-4.001v-6.997c.827.004 2.597.017 4.569.064 1.837.044 3.876.921 5.456 2.346l.141.128 3.887-.001c.617 0 1.119.502 1.119 1.119s-.502 1.119-1.119 1.119h-7.142v.992h7.142c.684 0 1.288-.333 1.674-.839l6.984-3.373c.343-.167.725-.146 1.049.057s.508.537.508.918c0 .391-.212.753-.553.945zM16.612 12.159h-.992v.92h.992v-.92zM16.612 13.992h-.992v.92h.992v-.92zM16.612 15.826h-.992v.92h.992v-.92z"/></symbol><symbol id="icon-how1" viewBox="0 0 31 32"><path fill="#ff6b09" style="fill:var(--color2, #ff6b09)" d="m30.151 4.961-.001-.002a.32.32 0 0 0-.06-.09L25.284.063a.258.258 0 0 0-.041-.033l-.009-.006c-.012-.007-.024-.014-.036-.019L25.187 0a.277.277 0 0 0-.099-.02H3.912a.284.284 0 0 0-.284.284v29.311c0 .019.002.037.006.056l.007.023.009.03.014.026.013.023c.01.014.021.028.033.04l.003.003 2.165 2.164c.111.111.29.111.402 0l1.965-1.963 1.964 1.963c.055.056.128.083.201.083s.145-.027.201-.083l1.963-1.963 1.965 1.963a.284.284 0 0 0 .402 0l1.963-1.963 1.964 1.963a.283.283 0 0 0 .401 0l1.965-1.963 1.963 1.963c.055.056.128.083.201.083s.145-.027.201-.083l1.963-1.963 1.965 1.963a.283.283 0 0 0 .401 0l2.165-2.164.011-.014.024-.029c.007-.01.011-.02.016-.03.003-.007.007-.012.009-.019.006-.013.009-.026.012-.039l.005-.013a.278.278 0 0 0 .006-.058V5.071a.296.296 0 0 0-.023-.109zM25.367.949l3.836 3.835h-3.836V.949zm4.238 28.507-1.88 1.88-1.965-1.963a.283.283 0 0 0-.401 0l-1.963 1.963-1.963-1.963a.284.284 0 0 0-.402 0l-1.965 1.963-1.963-1.962v-.001a.284.284 0 0 0-.402 0l-1.963 1.963-1.965-1.963a.284.284 0 0 0-.402 0l-1.963 1.963-1.964-1.963a.284.284 0 0 0-.402 0l-1.965 1.963-1.88-1.88V.547H24.8v4.522c0 .157.127.284.284.284h4.521v24.103z"/><path fill="#ff6b09" style="fill:var(--color2, #ff6b09)" d="M6.314 3.234h9.303a.284.284 0 1 0 0-.568H6.314a.284.284 0 1 0 0 .568zM6.314 4.991h14.919a.284.284 0 1 0 0-.568H6.314a.284.284 0 1 0 0 .568zM6.03 6.568v9.199c0 .157.127.284.284.284h21.172a.284.284 0 0 0 .284-.284V6.568a.284.284 0 0 0-.284-.284H6.314a.284.284 0 0 0-.284.284zm6.279.284h14.893v2.445H12.309V6.852zm0 3.013h14.893v2.444H12.309V9.865zm0 3.012h14.893v2.605H12.309v-2.605zM6.598 6.852h5.142v2.445H6.598V6.852zm0 3.013h5.142v2.444H6.598V9.865zm0 3.012h5.142v2.605H6.598v-2.605zM27.486 17.329H6.314a.284.284 0 0 0-.284.284v9.198a.284.284 0 1 0 .568 0v-2.889h5.142v2.889a.284.284 0 1 0 .568 0v-2.889h14.893v2.889a.284.284 0 1 0 .568 0v-9.198a.282.282 0 0 0-.283-.284zm-15.745 6.025H6.599v-2.443h5.142v2.443zm0-3.012H6.599v-2.444h5.142v2.444zm15.461 3.012H12.309v-2.443h14.893v2.443zm0-3.012H12.309v-2.444h14.893v2.444zM2.281-.021a.284.284 0 0 0-.284.284v29.311a.284.284 0 1 0 .568 0V.263a.284.284 0 0 0-.284-.284zM.718-.021a.284.284 0 0 0-.284.284v29.311a.284.284 0 1 0 .568 0V.263a.284.284 0 0 0-.284-.284z"/></symbol><symbol id="icon-how2" viewBox="0 0 33 32"><path fill="#ff6b09" style="fill:var(--color2, #ff6b09)" d="M30.175-.128H14.429a1.861 1.861 0 0 0-1.859 1.859v6.518L.872 13.159a.38.38 0 0 0-.049.678l1.492.893v9.515A1.719 1.719 0 0 0 .98 25.919v.917c0 .21.171.381.381.381h2.671c.21 0 .381-.171.381-.381v-.917a1.72 1.72 0 0 0-1.336-1.673v-9.06l1.18.706c-.036.272-.005-.474-.017 4.43 0 1.612 4.129 2.476 8.33 2.525v7.425a1.858 1.858 0 0 0 1.858 1.856h15.746a1.859 1.859 0 0 0 1.857-1.857c0 .051-.002-1.573 0-28.54a1.87 1.87 0 0 0-1.856-1.859zM3.652 25.918v.536H1.743v-.536a.955.955 0 1 1 1.909 0zm26.523 5.446H14.429a1.096 1.096 0 0 1-1.096-1.094v-2.574h17.935v2.575c0 .597-.497 1.092-1.092 1.092zm1.093-4.429H13.333v-4.086c2.051-.023 8.335-.475 8.335-2.527-.002-3.081.005-4.33-.01-4.436l3.421-2.049a.382.382 0 0 0-.049-.678l-11.698-4.91V5.067h17.935v21.868zm-18.317-9.143c-2.113 0-6.182.273-7.949 1.427.011-3.53-.122-3.3.312-3.6 1.098-.809 4.238-1.373 7.637-1.373 1.482 0 7.954.408 7.954 1.778v3.195c-1.784-1.165-5.832-1.428-7.954-1.428zm.382-16.061c0-.604.491-1.095 1.095-1.095h15.746c.604 0 1.093.498 1.093 1.095v2.574H13.332V1.731zm-.382 7.184 11.09 4.655-2.748 1.644c-1.461-1.449-6.294-1.73-8.342-1.73-2.051 0-6.884.282-8.342 1.73L1.86 13.569l11.091-4.655zM5.002 20.321c0-.617 2.73-1.767 7.949-1.767 5.222 0 7.954 1.151 7.954 1.767s-2.732 1.768-7.954 1.768c-5.219 0-7.949-1.151-7.949-1.768z"/><path fill="#ff6b09" style="fill:var(--color2, #ff6b09)" d="M22.301 28.271a1.261 1.261 0 0 0 0 2.52c.695 0 1.26-.566 1.26-1.26s-.565-1.26-1.26-1.26zm0 1.759a.499.499 0 1 1 .002-.998.499.499 0 0 1-.002.998zM23.755 2.09h-2.906v.762h2.906V2.09z"/></symbol><symbol id="icon-how3" viewBox="0 0 46 32"><path fill="#fff" style="fill:var(--color1, #fff)" d="M20.267 4.608H6.627v1.021h13.64V4.608zM20.266 8.416H8.669v1.021h11.597V8.416zM20.267 12.224H6.627v1.021h13.64v-1.021zM20.266 16.032H8.669v1.021h11.597v-1.021zM20.267 19.84H6.627v1.021h13.64V19.84zM20.266 23.648H8.669v1.021h11.597v-1.021zM38.99 4.608H25.35v1.021h13.64V4.608zM36.947 8.416H25.35v1.021h11.597V8.416zM38.99 12.224H25.35v1.021h13.64v-1.021zM36.947 16.032H25.35v1.021h11.597v-1.021zM38.99 19.84H25.35v1.021h13.64V19.84zM36.947 23.648H25.35v1.021h11.597v-1.021z"/><path fill="#fff" style="fill:var(--color1, #fff)" d="M43.915 3.445h-1.872V.633a.511.511 0 0 0-.511-.511H26.267c-1.49 0-2.781.805-3.458 2.011A3.95 3.95 0 0 0 19.35.122H4.085a.511.511 0 0 0-.511.511v2.812H1.702a.511.511 0 0 0-.511.511v27.411c0 .282.229.511.511.511h42.213a.511.511 0 0 0 .511-.511V3.956a.511.511 0 0 0-.511-.511zM26.267 1.144h14.754v27.35H25.178a3.01 3.01 0 0 0-1.859.68V4.085a2.932 2.932 0 0 1 2.948-2.942zm-21.671 0H19.35a2.924 2.924 0 0 1 2.942 2.829c.001.022.003.091.006.112v25.087a2.993 2.993 0 0 0-1.852-.678H4.596V1.144zM2.213 4.467h1.362v24.538c0 .282.229.511.511.511h16.361c.778 0 1.531.511 1.771 1.341H2.213V4.467zm41.191 26.389H23.4a1.845 1.845 0 0 1 1.778-1.341h16.354a.511.511 0 0 0 .511-.511V4.466h1.362v26.39z"/></symbol><symbol id="icon-adv1" viewBox="0 0 31 32"><path fill="#ff6b09" style="fill:var(--color2, #ff6b09)" d="M7.16 26.219h17.28c.086-1.975-.056-5.251-1.267-6.81l-.044-.056-2.648-1.332c.058-.194.086-.372.097-.503a.936.936 0 0 0-.064-.438c-.437-1.047-1.361-1.598-1.869-1.833.155-.313.255-.649.303-.992a.85.85 0 0 0 .595-.615l.309-1.258a.855.855 0 0 0-.097-.648.856.856 0 0 0-.19-.216c.871-1.983-.588-3.853-.668-3.952-1.581-1.712-3.577-1.392-3.683-1.373-2.881.605-3.993 2.817-3.366 5.413a.853.853 0 0 0-.195.776l.311 1.259a.85.85 0 0 0 .591.613c.088.628.354 1.197.743 1.655v.997c-4.135 2.122-1.515.768-4.828 2.448-.007.031-1.555 1.68-1.325 6.567l.014.299zm16.68-.627h-2.844v-1.197l1.881-4.315c.942 1.567.977 4.56.963 5.512zm-3.882-8.128c-.11 1.263-.801.881-1.228 1.855-.336-.37-.437-.813-.346-1.288.163-.872-.368-1.131-.237-2.047l.02-.021v-.003c.011-.013.116-.138.146-.177 1.125.492 1.667 1.406 1.645 1.681zm-6.036-.993a3.199 3.199 0 0 0 3.596.049c.072.72.353.864.253 1.394a2.263 2.263 0 0 0-.035.291l-1.937 2.187-2.476-2.797.598-.313v-.811zm-.779-2.677V10.45c.301-.559.712-.964 1.223-1.207 1.368.775 2.942 1.933 3.998 3.098-.001 1.483.004 1.487-.006 1.609l-.001.008c-.082 1.347-1.188 2.463-2.605 2.463a2.621 2.621 0 0 1-2.61-2.628zm-.385 4.104 3.043 3.437 2.043-2.307c.047.135.112.262.187.385l-2.23 2.794-3.325-4.167.282-.142zm6.229-4.608v-.968l.232-.267c.013.49.066-.088-.232 1.235zM15.33 6.809c.124.008 1.784-.253 3.096 1.167.052.065 1.12 1.444.691 2.953-.147-.671-.403-1.532-.807-1.942l-.442.441c.399.405.662 1.64.762 2.28-1.833-1.921-4.196-3.138-4.229-3.158-.119.074-1.119.264-1.845 1.679l-.035.068v1.039l-.092.001c-.462-2.233.422-4.007 2.902-4.528zm-2.967 5.173.157.638v.671l-.261-1.06c-.038-.158.078-.218.104-.249zm-.458 6.344 3.895 4.881 2.635-3.303c.287.257.425.294 1.032.607l-.205-.697c-.052-.177.154-.461.278-.591a1.88 1.88 0 0 0 .682-.632l2.15 1.082-2.001 4.59v1.328h-9.146v-1.329l-2.002-4.589 2.68-1.348zm-3.182 1.756 1.881 4.314v1.197H7.76c-.014-.952.021-3.943.963-5.511z"/><path fill="none" stroke="#ff6b09" style="stroke:var(--color2, #ff6b09)" stroke-width="1.032" d="M30.968 4.767V.517H.516v30.968h30.452v-4.25"/></symbol><symbol id="icon-adv3" viewBox="0 0 31 32"><path fill="#ff6b09" style="fill:var(--color2, #ff6b09)" d="M7.059 14.761c0 .231-.35.231-.35 0 0-4.905 3.97-8.884 8.866-8.884 4.898 0 8.866 3.978 8.866 8.884 0 .231-.347.231-.347 0 0-3.316-5.438-3.318-5.438 0 0 .231-.358.231-.358 0 0-3.307-5.446-3.307-5.446 0 0 .231-.358.231-.358 0 0-3.301-5.435-3.324-5.435 0zm5.467-1.287c.094-1.909.393-3.62.829-4.926.347-1.038.787-1.827 1.285-2.269-3.738.409-6.765 3.249-7.441 6.931 1.287-1.86 4.259-1.711 5.327.264zm5.745-.086c-.096-1.835-.387-3.477-.806-4.729-1.08-3.24-2.7-3.24-3.78 0-.419 1.252-.707 2.894-.806 4.729 1.162-1.978 4.23-1.978 5.391 0zm5.681-.178a8.525 8.525 0 0 0-7.441-6.931c.5.443.938 1.231 1.285 2.269.435 1.307.735 3.018.829 4.926 1.074-1.986 4.054-2.104 5.327-.264zM14.412 18.827v-1.804c-.324.216-.58.55-.58.957 0 .396.259.659.58.847zm.35.56c-.622-.285-1.277-.619-1.277-1.408 0-.814.617-1.221 1.277-1.525v2.933zM16.739 21.548v1.825c.329-.218.586-.554.586-.961 0-.401-.264-.671-.586-.864zm-.347-.562c.624.289 1.283.633 1.283 1.426 0 .816-.622 1.223-1.283 1.525v-2.951z"/><path fill="#ff6b09" style="fill:var(--color2, #ff6b09)" d="M16.739 14.969c1.432.331 2.903 1.405 2.903 3.01 0 1.374-2.317 1.323-2.317 0 0-.409-.257-.745-.586-.961v2.567c1.325.434 2.907 1.212 2.907 2.827 0 1.607-1.471 2.678-2.907 3.008-.006 1.529-2.323 1.527-2.327-.002-.816-.189-1.526-.57-2.039-1.076-.538-.533-.856-1.202-.856-1.93 0-1.353 2.315-1.353 2.315 0 0 .405.255.738.58.954v-2.565c-1.314-.426-2.905-1.227-2.905-2.827 0-1.607 1.471-2.678 2.905-3.008.006-1.529 2.323-1.527 2.327.002zm-1.978.004v.279c-1.363.271-2.907 1.145-2.907 2.722 0 1.516 1.695 2.196 2.907 2.571v3.389c-.655-.3-1.277-.705-1.277-1.523 0-.893-1.62-.893-1.62 0 0 .631.28 1.214.753 1.68.601.596 1.329.879 2.143 1.04v.281c0 1.076 1.63 1.076 1.63 0v-.279c1.367-.273 2.905-1.147 2.905-2.722 0-1.531-1.691-2.19-2.905-2.573v-3.387c.657.3 1.283.705 1.283 1.527 0 .87 1.618.906 1.618 0 0-1.575-1.536-2.452-2.901-2.724v-.281c0-1.076-1.63-1.076-1.63 0z"/><path fill="none" stroke="#ff6b09" style="stroke:var(--color2, #ff6b09)" stroke-width="1.032" d="M30.968 4.767V.517H.516v30.968h30.452v-4.25"/></symbol><symbol id="icon-adv2" viewBox="0 0 31 32"><path fill="#ff6b09" style="fill:var(--color2, #ff6b09)" d="M24.79 5.099H14.512c-.669 0-1.213.544-1.213 1.212v4.25l-7.636 3.202a.249.249 0 0 0-.032.442l.974.582v6.205a1.121 1.121 0 0 0-.872 1.091v.598c0 .137.111.248.249.248h1.744a.249.249 0 0 0 .249-.248v-.598c0-.532-.374-.977-.872-1.091v-5.908l.77.46c-.024.177-.003-.309-.011 2.889 0 1.051 2.695 1.614 5.437 1.647v4.842a1.213 1.213 0 0 0 1.213 1.211H24.79c.669 0 1.212-.543 1.212-1.211V6.311a1.22 1.22 0 0 0-1.212-1.212zM7.477 22.084v.35H6.231v-.35a.624.624 0 1 1 1.247 0zm17.313 3.551H14.512a.717.717 0 0 1-.715-.713v-1.679h11.707v1.679a.719.719 0 0 1-.713.712zm.713-2.888H13.796v-2.665c1.339-.015 5.441-.31 5.441-1.648-.001-2.009.004-2.824-.006-2.893l2.233-1.336a.248.248 0 0 0-.032-.442l-7.636-3.202V8.486h11.707v14.261zm-11.956-5.962c-1.379 0-4.035.178-5.189.931.007-2.302-.08-2.152.204-2.347.717-.527 2.767-.895 4.985-.895.968 0 5.192.266 5.192 1.159v2.084c-1.165-.76-3.807-.931-5.192-.931zm.249-10.474c0-.394.321-.714.715-.714h10.278c.395 0 .714.325.714.714V7.99H13.796V6.311zm-.249 4.685 7.239 3.035-1.794 1.072c-.954-.945-4.108-1.128-5.445-1.128-1.339 0-4.494.184-5.445 1.128L6.308 14.03l7.239-3.035zm-5.188 7.438c0-.402 1.782-1.152 5.189-1.152 3.409 0 5.192.75 5.192 1.152s-1.783 1.153-5.192 1.153c-3.407 0-5.189-.75-5.189-1.153z"/><path fill="#ff6b09" style="fill:var(--color2, #ff6b09)" d="M19.65 23.618a.823.823 0 1 0 .001 1.645.823.823 0 0 0-.001-1.645zm0 1.147a.326.326 0 0 1 0-.65.326.326 0 0 1 0 .65zM20.599 6.545h-1.897v.497h1.897v-.497z"/><path fill="none" stroke="#ff6b09" style="stroke:var(--color2, #ff6b09)" stroke-width="1.016" d="M30.476 4.793V.601H.508v30.538h29.968v-4.192"/></symbol><symbol id="icon-menu" viewBox="0 0 48 32"><path stroke-width="4.571" d="M0 2.286h46.857M0 16h46.857M0 29.714h46.857"/></symbol><symbol id="icon-fire" viewBox="0 0 26 32"><path fill="#ff6b09" style="fill:var(--color2, #ff6b09)" d="M22.642 16.003c-.275-.613-.654-1.216-1.208-1.912-1.398-1.749-1.824-5.649-1.829-5.686a.471.471 0 0 0-.327-.397.48.48 0 0 0-.502.136c-1.668 1.856-.967 4.723-.588 5.869.104.313.218.683.298 1.057.616 3.025-.573 4.396-.853 4.671-.27.075-.455.037-.625-.145-.588-.641-.782-2.74-.507-5.476a5.543 5.543 0 0 0-.038-1.524c-.58-3.362-2.704-5.519-3.245-6.275C11.73 4.133 11.579.49 11.574.457a.457.457 0 0 0-.261-.402.476.476 0 0 0-.479.033C8.351 1.767 8.565 5.812 8.91 8.07c.081.524.237 1.057.507 1.73.962 2.408-.19 5.518-.199 5.546s-.019.051-.024.079c-.147.767-.393 1.225-.668 1.225a.341.341 0 0 1-.09-.014c-.336-.07-.512-.426-.516-.734-.019-3.989-4.041-5.331-4.084-5.345a.473.473 0 0 0-.502.14.456.456 0 0 0-.066.514c.047.098.199.528.095 2.048a17.375 17.375 0 0 1-.744 4.012c-.957 3.105-.805 6.046-.796 6.187.736 7.964 12.245 9.359 19.075 4.873.748-.491 1.36-1.052 1.81-1.669 2.521-3.46 1.038-8.16-.066-10.657zM5.135 23.611a.468.468 0 0 1-.445.491h-.028a.47.47 0 0 1-.474-.44 16.729 16.729 0 0 1 .019-2.174.478.478 0 0 1 .507-.435c.261.019.46.243.441.5a14.999 14.999 0 0 0-.019 2.058zm.233-4.143a.47.47 0 0 1-.469.412c-.019 0-.038 0-.062-.005a.472.472 0 0 1-.412-.519l.227-1.805a.478.478 0 0 1 .531-.407.47.47 0 0 1 .412.524l-.227 1.8zM19.437 6.397a.469.469 0 0 1-.396-.533c.03-.19.201-1.163.665-1.652.179-.189.478-.198.67-.021s.2.472.021.661c-.197.207-.364.8-.42 1.154a.474.474 0 0 1-.541.39zM2.164 8.727c-.091-.348-.316-.921-.532-1.109-.197-.17-.217-.466-.044-.66s.471-.214.669-.043c.511.442.777 1.393.826 1.579a.475.475 0 0 1-.918.233z"/></symbol></defs></svg>