<svg aria-hidden="true" style="position:absolute;width:0;height:0;overflow:hidden" xmlns="http://www.w3.org/2000/svg"><defs><symbol id="hwd-icon-audiobook" viewBox="0 0 39 32"><path d="M3.047 29.453h12.23a3.738 3.738 0 0 0 3.38 2.116h.772c1.465 0 2.761-.83 3.381-2.116h12.237a2.289 2.289 0 0 0 2.286-2.286V5.262a2.289 2.289 0 0 0-2.286-2.286h-1.234V1.955c0-.84-.684-1.524-1.524-1.524H5.798c-.84 0-1.524.683-1.524 1.524v1.021H3.047A2.289 2.289 0 0 0 .761 5.262v21.905a2.289 2.289 0 0 0 2.286 2.286zm29.241-4.701H19.81V7.047c2.884.377 5.121 2.845 5.121 5.831v.687l-.181-.04a.759.759 0 0 0-.908.58l-1.213 5.519c-.09.41.17.816.58.907l2.621.578a1.946 1.946 0 0 0 2.319-1.491l.702-3.192a1.954 1.954 0 0 0-1.484-2.324l-.912-.201v-1.023c0-3.827-2.917-6.986-6.644-7.37V1.957h12.48l-.002 22.796zm-7.122-9.575 1.871.412a.422.422 0 0 1 .325.508l-.702 3.191a.45.45 0 0 1-.507.331l-1.873-.413.886-4.03zM5.798 1.956h12.487v3.55c-3.731.381-6.652 3.541-6.652 7.371v1.022l-.914.202a1.935 1.935 0 0 0-1.222.854 1.928 1.928 0 0 0-.26 1.468l.7 3.188a1.96 1.96 0 0 0 2.325 1.495l2.61-.577a.762.762 0 0 0 .58-.907l-1.213-5.519c-.043-.198-.164-.37-.334-.478s-.378-.144-.574-.102l-.174.038v-.686c0-2.988 2.24-5.458 5.128-5.832v17.706H5.798V1.953zm7.118 13.221.887 4.029-1.863.411a.433.433 0 0 1-.512-.328l-.702-3.196a.42.42 0 0 1 .323-.506l1.867-.412zM2.286 5.262c0-.42.342-.762.762-.762h1.227v20.251c0 .84.684 1.524 1.524 1.524H32.29c.84 0 1.524-.683 1.524-1.524V4.5h1.234c.42 0 .762.342.762.762v21.905c0 .42-.342.762-.762.762H22.294a.76.76 0 0 0-.728.538 2.22 2.22 0 0 1-2.135 1.577h-.772a2.229 2.229 0 0 1-2.138-1.586.762.762 0 0 0-.725-.529H3.049a.763.763 0 0 1-.762-.762V5.262z"/></symbol><symbol id="hwd-icon-support" viewBox="0 0 33 32"><path d="M2.519 12.558v2.831a.5.5 0 0 0 .187.39 10.838 10.838 0 0 0 6.738 2.362c.73 0 1.46-.077 2.174-.224a11.692 11.692 0 0 0 4.819 1.032c1.682 0 3.303-.349 4.819-1.032 3.046.624 6.291-.046 8.911-2.138a.498.498 0 0 0 .186-.39v-2.831c0-.415-.203-.794-.566-1.027l-3.811-2.176c.834-1.073 1.455-2.602 1.563-3.913.316-2.256-1.496-4.646-4.105-4.646-1.097 0-2.14.458-2.905 1.227-.026.027-.057.049-.082.076-.024.025-.043.054-.066.08l-.044.053C19.591.852 18.158 0 16.47 0c-.164 0-.325.011-.485.028-.01-.001-.018-.006-.028-.006-.091 0-.283.024-.385.054-.015.004-.026.015-.04.021a4.42 4.42 0 0 0-2.969 2.156A4.09 4.09 0 0 0 9.43.796c-3.851 0-5.56 4.612-2.52 8.581l-3.846 2.167a1.197 1.197 0 0 0-.545 1.014zm18.727 4.27c-.083.041-.164.085-.248.123l-.002.001a10.714 10.714 0 0 1-4.56 1.006 10.797 10.797 0 0 1-6.577-2.228v-2.87c0-.098.047-.185.101-.221l4.476-2.524c.557.48 1.268.832 2.006.832.71 0 1.477-.357 2.023-.843l4.422 2.52a.276.276 0 0 1 .128.237v2.87c-.563.429-1.156.795-1.768 1.098zm8.039-4.446a.203.203 0 0 1 .091.176v2.587a9.741 9.741 0 0 1-6.639 1.98c.364-.23.76-.516 1.067-.76a.499.499 0 0 0 .187-.39v-3.114c0-.435-.215-.835-.601-1.087l-2.349-1.339.571-.321c.693.573 1.288.744 1.822.744.653 0 1.34-.325 1.851-.759l4.001 2.284zM23.434 1.788c1.36 0 2.555.902 2.977 2.142a3.628 3.628 0 0 1-2.204-1.142.484.484 0 0 0-.776.084 3.628 3.628 0 0 1-2.511 1.76v-.003a4.95 4.95 0 0 0-.032-.653l-.007-.067a5.369 5.369 0 0 0-.12-.609c.555-.902 1.586-1.513 2.674-1.513zm-2.622 3.856a4.558 4.558 0 0 0 3.118-1.762 4.58 4.58 0 0 0 2.663 1.056c-.007 1.792-1.45 4.927-3.159 4.927-1.318 0-2.443-1.912-2.863-3.238.107-.341.185-.669.242-.983zm.099 3.729-.873.491-.882-.502c.327-.413.627-.893.883-1.413.247.526.542 1.01.871 1.425zm-1.317-2.908c-.471 1.427-1.68 3.49-3.153 3.49-1.717 0-3.179-2.864-3.458-4.696.074-.019 2.394.126 3.991-2.001.81.688 1.904 1.143 2.967 1.188.013.647-.142 1.406-.347 2.018zM16.47.992c2.739 0 3.261 2.392 3.304 2.442a4.045 4.045 0 0 1-2.526-1.276.486.486 0 0 0-.778.087 4.024 4.024 0 0 1-2.379 1.868 4.2 4.2 0 0 1-1.149.154C13.076 2.445 14.515.993 16.47.993zm-3.635 6.946c.253.515.555 1.006.899 1.438l-.863.487-.894-.51c.339-.438.627-.929.857-1.415zM9.43 1.788c1.108 0 2.124.571 2.69 1.514-.028.1-.105.498-.115.548a3.606 3.606 0 0 1-1.794-1.062.484.484 0 0 0-.777.086 3.648 3.648 0 0 1-3.131 1.815c.156-1.627 1.496-2.9 3.128-2.9zm-3.085 3.89a4.62 4.62 0 0 0 3.59-1.796 4.54 4.54 0 0 0 2.026.961 7.47 7.47 0 0 0 .345 1.789c-.27.84-.788 1.841-1.43 2.505-.004.004-.01.006-.013.01-.402.43-.974.719-1.423.719-1.571 0-2.799-2.508-3.094-4.188zm-2.849 6.88c0-.075.033-.139.066-.162l4.056-2.284c.243.206.299.229.348.265.477.322.915.482 1.512.482.636 0 1.214-.273 1.724-.694.029-.023.06-.045.087-.068l.579.33-2.411 1.361c-.36.236-.576.636-.576 1.071v3.114c0 .152.069.296.187.39.312.249.717.539 1.067.761a9.776 9.776 0 0 1-6.639-1.98v-2.587z"/><path d="M31.359 20.781a2.005 2.005 0 0 0-1.978-.11l-6.03 2.956c-.021-1.145-.942-2.072-2.076-2.072l-3.458.001c-1.705-1.504-3.884-2.425-5.865-2.473-1.954-.047-3.708-.06-4.526-.064v-1.002H.556v11.517h6.87v-1.379C9.31 29.252 14.264 32 16.615 32c.053 0 .105-.001.155-.004 4.135-.235 13.886-7.198 14.529-7.661a2.085 2.085 0 0 0 1.019-1.796 2.07 2.07 0 0 0-.959-1.758zM6.448 28.542H1.532v-9.533h4.916v9.533zm24.348-5.058a.244.244 0 0 0-.043.028c-.101.073-10.131 7.271-14.037 7.494a2.304 2.304 0 0 1-.119.003c-2.062 0-7.09-2.753-9.171-4.001v-6.997c.815.004 2.559.017 4.502.064 1.81.044 3.82.921 5.376 2.346l.139.128 3.831-.001c.608 0 1.103.502 1.103 1.119s-.494 1.119-1.102 1.119h-7.038v.992h7.038c.674 0 1.269-.333 1.649-.839l6.882-3.374c.338-.167.715-.146 1.034.057s.501.537.501.918c0 .391-.209.753-.545.945zM16.925 12.159h-.977v.92h.977v-.92zM16.925 13.992h-.977v.92h.977v-.92zM16.925 15.826h-.977v.92h.977v-.92z"/></symbol><symbol id="hwd-icon-female" viewBox="0 0 26 32"><path d="M-.101 31.759h26.35c.13-3.055-.085-8.123-1.932-10.535l-.067-.087-4.037-2.06c.088-.301.131-.576.148-.778a1.454 1.454 0 0 0-.098-.678c-.666-1.62-2.075-2.473-2.851-2.836a5.075 5.075 0 0 0 .462-1.534c.439-.126.792-.479.908-.951l.471-1.946a1.34 1.34 0 0 0-.148-1.002 1.293 1.293 0 0 0-.289-.334c1.329-3.068-.897-5.96-1.018-6.113C15.388.256 12.343.752 12.183.781c-4.394.935-6.089 4.358-5.132 8.372a1.332 1.332 0 0 0-.298 1.2l.474 1.948c.115.468.465.82.901.948a5.04 5.04 0 0 0 1.134 2.559v1.543c-6.305 3.282-2.31 1.188-7.363 3.786-.01.049-2.371 2.599-2.02 10.159l.021.462zm25.434-.97h-4.337v-1.852l2.868-6.674c1.437 2.424 1.49 7.053 1.468 8.526zm-5.918-12.573c-.167 1.954-1.222 1.363-1.872 2.869-.512-.572-.666-1.258-.528-1.993.249-1.349-.561-1.749-.361-3.166l.03-.032v-.005c.017-.02.177-.213.223-.274 1.716.76 2.542 2.174 2.508 2.6zM10.21 16.68a4.828 4.828 0 0 0 5.484.074c.11 1.114.538 1.337.386 2.157a3.532 3.532 0 0 0-.053.45l-2.953 3.384-3.775-4.327.911-.484V16.68zm-1.187-4.141V7.367c.46-.864 1.086-1.491 1.865-1.866 2.086 1.2 4.486 2.99 6.096 4.791-.002 2.294.006 2.301-.009 2.489l-.001.012c-.126 2.084-1.811 3.811-3.972 3.811-2.101 0-3.846-1.677-3.972-3.831a3.005 3.005 0 0 1-.008-.233zm-.589 6.347 4.64 5.317 3.115-3.569c.071.208.171.405.285.595l-3.4 4.322-5.07-6.446.431-.22zm9.5-7.127v-1.498l.354-.413c.02.758.1-.137-.354 1.911zM12.357 1.734c.188.012 2.72-.391 4.721 1.804.079.1 1.708 2.234 1.053 4.567-.224-1.038-.614-2.369-1.231-3.004l-.674.683c.609.627 1.009 2.537 1.162 3.527-2.794-2.972-6.399-4.853-6.448-4.885-.181.114-1.706.409-2.814 2.598l-.053.105v1.607l-.14.002c-.704-3.454.644-6.198 4.424-7.004zM7.833 9.735l.24.987v1.038l-.398-1.639c-.058-.244.12-.337.159-.386zm-.698 9.815 5.94 7.551 4.019-5.109c.437.398.647.454 1.574.939l-.313-1.078c-.079-.274.235-.713.424-.914a2.89 2.89 0 0 0 1.04-.977l3.279 1.674-3.051 7.1v2.055H6.101v-2.055l-3.052-7.099 4.086-2.085zm-4.853 2.715 2.869 6.673v1.852H.814c-.022-1.473.032-6.099 1.468-8.524z"/></symbol><symbol id="hwd-icon-reading" viewBox="0 0 44 32"><path d="M19.366 4.608H5.893v1.021h13.473V4.608zM19.366 8.416H7.91v1.021h11.456V8.416zM19.366 12.224H5.893v1.021h13.473v-1.021zM19.366 16.032H7.91v1.021h11.456v-1.021zM19.366 19.84H5.893v1.021h13.473V19.84zM19.366 23.648H7.91v1.021h11.456v-1.021zM37.862 4.608H24.389v1.021h13.473V4.608zM35.844 8.416H24.388v1.021h11.456V8.416zM37.862 12.224H24.389v1.021h13.473v-1.021zM35.844 16.032H24.388v1.021h11.456v-1.021zM37.862 19.84H24.389v1.021h13.473V19.84zM35.844 23.648H24.388v1.021h11.456v-1.021z"/><path d="M42.726 3.445h-1.85V.633a.508.508 0 0 0-.504-.511H25.293a3.892 3.892 0 0 0-3.416 2.011A3.894 3.894 0 0 0 18.46.122H3.381a.508.508 0 0 0-.504.511v2.812h-1.85a.508.508 0 0 0-.504.511v27.411c0 .282.226.511.504.511h41.698a.508.508 0 0 0 .504-.511V3.956a.508.508 0 0 0-.504-.511zM25.294 1.144h14.574v27.35h-15.65a2.95 2.95 0 0 0-1.836.68V4.085c0-1.63 1.289-2.942 2.912-2.942zm-21.408 0H18.46a2.904 2.904 0 0 1 2.906 2.829c.001.022.003.091.006.112v25.087a2.928 2.928 0 0 0-1.829-.678H3.886V1.144zM1.532 4.467h1.345v24.538c0 .282.226.511.504.511h16.161c.769 0 1.512.511 1.75 1.341H1.531V4.467zm40.69 26.389h-19.76a1.826 1.826 0 0 1 1.756-1.341h16.155a.508.508 0 0 0 .504-.511V4.466h1.345v26.39z"/></symbol><symbol id="hwd-icon-online" viewBox="0 0 32 32"><path d="M29.547-.128H14.129c-1.004 0-1.82.834-1.82 1.859v6.518L.855 13.159c-.13.056-.218.181-.228.324s.059.28.18.354l1.461.893v9.515A1.712 1.712 0 0 0 .96 25.919v.917c0 .21.167.381.373.381h2.616a.377.377 0 0 0 .373-.381v-.917c0-.816-.561-1.498-1.308-1.673v-9.06l1.155.706c-.035.272-.005-.474-.016 4.43 0 1.612 4.043 2.476 8.157 2.525v7.425c0 .384.115.74.312 1.036.327.494.881.82 1.508.82h15.418c1.003 0 1.818-.833 1.818-1.857 0 .051-.002-1.573 0-28.54 0-1.011-.819-1.859-1.817-1.859zM3.576 25.918v.536h-1.87v-.536c0-.528.418-.957.933-.957.517 0 .937.43.937.957zm25.971 5.446H14.129c-.37 0-.697-.191-.89-.482a1.102 1.102 0 0 1-.183-.612v-2.574h17.561v2.575c0 .597-.487 1.092-1.07 1.092zm1.069-4.429H13.054v-4.086c2.009-.023 8.161-.475 8.161-2.527-.002-3.081.005-4.33-.009-4.436l3.35-2.049c.121-.074.19-.211.18-.354s-.098-.268-.228-.324l-11.454-4.91V5.067h17.562v21.868zm-17.934-9.143c-2.069 0-6.053.273-7.784 1.427.011-3.53-.12-3.3.306-3.6 1.075-.809 4.15-1.373 7.478-1.373 1.451 0 7.788.408 7.788 1.778v3.195c-1.747-1.165-5.71-1.428-7.788-1.428zm.373-16.061c0-.604.481-1.095 1.072-1.095h15.418c.592 0 1.07.498 1.07 1.095v2.574H13.054V1.731zm-.373 7.184 10.859 4.655-2.691 1.644c-1.43-1.449-6.162-1.73-8.168-1.73-2.008 0-6.741.282-8.168 1.73l-2.692-1.645 10.86-4.655zM4.898 20.321c0-.617 2.673-1.767 7.784-1.767 5.113 0 7.788 1.151 7.788 1.767s-2.675 1.768-7.788 1.768c-5.11 0-7.784-1.151-7.784-1.768z"/><path d="M21.837 28.271c-.68 0-1.234.565-1.234 1.26s.553 1.26 1.234 1.26c.68 0 1.234-.565 1.234-1.26s-.553-1.26-1.234-1.26zm0 1.759c-.269 0-.488-.224-.488-.498s.219-.498.488-.498.488.223.488.498-.219.498-.488.498zM23.26 2.09h-2.846v.762h2.846V2.09z"/></symbol><symbol id="hwd-icon-program" viewBox="0 0 30 32"><path d="m29.931 4.961-.001-.002a.32.32 0 0 0-.06-.09L25.099.063a.25.25 0 0 0-.04-.033L25.05.024c-.012-.007-.023-.014-.036-.019L25.003 0a.277.277 0 0 0-.098-.02H3.882A.283.283 0 0 0 3.6.264v29.311c0 .019.002.037.006.056l.007.023.009.03.013.026.012.023c.01.014.021.028.032.04l.003.003 2.149 2.164a.28.28 0 0 0 .399 0l1.95-1.963 1.95 1.963c.055.056.127.083.2.083s.144-.027.199-.083l1.949-1.963 1.95 1.963a.28.28 0 0 0 .399 0l1.949-1.963 1.949 1.963a.28.28 0 0 0 .398 0l1.951-1.963 1.949 1.963a.28.28 0 0 0 .399 0l1.949-1.963 1.951 1.963a.28.28 0 0 0 .398 0l2.149-2.164.011-.014c.008-.009.017-.019.023-.029.007-.009.011-.02.016-.03.003-.007.007-.012.009-.019.006-.013.009-.026.012-.039l.004-.013a.278.278 0 0 0 .006-.058V5.071a.296.296 0 0 0-.023-.109zM25.182.949l3.808 3.835h-3.808V.949zm4.207 28.507-1.866 1.88-1.951-1.963a.28.28 0 0 0-.398 0l-1.949 1.963-1.949-1.963a.28.28 0 0 0-.399 0l-1.951 1.963-1.949-1.962v-.001a.282.282 0 0 0-.399 0l-1.949 1.963-1.95-1.963a.28.28 0 0 0-.399 0l-1.949 1.963-1.95-1.963a.28.28 0 0 0-.399 0l-1.95 1.963-1.867-1.88V.547h20.453v4.522c0 .157.126.284.282.284h4.488v24.103z"/><path d="M6.268 3.234h9.235c.156 0 .282-.127.282-.284s-.126-.284-.282-.284H6.268c-.156 0-.282.127-.282.284s.126.284.282.284zM6.268 4.991h14.81c.156 0 .282-.127.282-.284s-.126-.284-.282-.284H6.268c-.156 0-.282.127-.282.284s.126.284.282.284zM5.986 6.568v9.199c0 .157.126.284.282.284h21.018a.283.283 0 0 0 .282-.284V6.568a.283.283 0 0 0-.282-.284H6.268a.283.283 0 0 0-.282.284zm6.233.284h14.785v2.445H12.219V6.852zm0 3.013h14.785v2.444H12.219V9.865zm0 3.012h14.785v2.605H12.219v-2.605zM6.55 6.852h5.105v2.445H6.55V6.852zm0 3.013h5.105v2.444H6.55V9.865zm0 3.012h5.105v2.605H6.55v-2.605zM27.286 17.329H6.268a.283.283 0 0 0-.282.284v9.198c0 .157.126.284.282.284s.282-.127.282-.284v-2.889h5.105v2.889c0 .157.126.284.282.284s.282-.127.282-.284v-2.889h14.785v2.889c0 .157.126.284.282.284s.282-.127.282-.284v-9.198a.281.281 0 0 0-.281-.284zm-15.631 6.025H6.55V20.91h5.105v2.444zm0-3.012H6.55v-2.444h5.105v2.444zm15.349 3.012H12.219V20.91h14.785v2.444zm0-3.012H12.219v-2.444h14.785v2.444zM2.264-.021a.283.283 0 0 0-.282.284v29.311c0 .157.126.284.282.284s.282-.127.282-.284V.263a.283.283 0 0 0-.282-.284zM.713-.021a.283.283 0 0 0-.282.284v29.311c0 .157.126.284.282.284s.282-.127.282-.284V.263a.283.283 0 0 0-.282-.284z"/></symbol></defs></svg>