<svg width="34" height="41" viewBox="0 0 34 41" fill="none" xmlns="http://www.w3.org/2000/svg">
<g clip-path="url(#clip0_1_2688)">
<path d="M-0.127892 39.7998C4.1733 39.7998 29.0568 39.7998 33.353 39.7998C33.5188 35.9739 33.2453 29.626 30.8978 26.6047L30.8129 26.4962L25.6831 23.9153C25.7945 23.5389 25.8493 23.194 25.8713 22.9405C25.8967 22.6363 25.8548 22.3504 25.7464 22.0915C24.9001 20.0623 23.1093 18.9947 22.1243 18.5396C22.4245 17.9335 22.618 17.2829 22.7115 16.6182C23.2691 16.4608 23.7176 16.018 23.8646 15.4273L24.4634 12.9898C24.5695 12.5598 24.5029 12.1138 24.2748 11.7346C24.1767 11.5711 24.0498 11.4334 23.9074 11.3157C25.5956 7.4732 22.7681 3.8501 22.6141 3.65939C19.5519 0.341792 15.6834 0.96214 15.4789 0.998906C9.89629 2.17028 7.74192 6.45747 8.95822 11.4856C8.59787 11.8856 8.44663 12.4428 8.58016 12.9892L9.18187 15.4293C9.32777 16.0157 9.77272 16.4569 10.3264 16.6162C10.4972 17.8336 11.0114 18.9347 11.7667 19.822V21.7544C3.75555 25.8653 8.83164 23.2426 2.41156 26.4971C2.39887 26.5578 -0.600871 29.7524 -0.155 39.2213L-0.127892 39.7998ZM32.1896 38.5852H26.6793V36.2658L30.3238 27.9056C32.1495 30.9421 32.2173 36.7399 32.1896 38.5852ZM24.6691 22.8373C24.4564 25.285 23.1169 24.5452 22.2899 26.431C21.6395 25.7143 21.4439 24.8549 21.6187 23.9351C21.9345 22.246 20.9057 21.7444 21.1599 19.9696L21.1985 19.9289V19.9233C21.2203 19.8988 21.4232 19.6567 21.4819 19.5802C23.662 20.5325 24.7116 22.3036 24.6691 22.8373ZM12.9737 20.9134C13.9857 21.6168 15.2074 22.0325 16.5215 22.0325C17.759 22.0325 18.9344 21.6717 19.9421 21.0073C20.0818 22.4025 20.626 22.6818 20.4329 23.7085C20.3967 23.8991 20.3771 24.0869 20.3655 24.2716L16.6128 28.5097L11.8157 23.0904L12.9737 22.4844V20.9134H12.9737ZM11.465 15.7268V13.377C11.465 12.5118 11.465 9.07891 11.465 9.24843C12.049 8.16609 12.8452 7.38117 13.8347 6.91057C16.4848 8.41308 19.5352 10.6554 21.5809 12.9121C21.579 15.7861 21.589 15.7939 21.57 16.03L21.5687 16.045C21.409 18.6547 19.2676 20.8179 16.5215 20.8179C13.8518 20.8179 11.6353 18.7176 11.475 16.0191C11.4667 15.9225 11.465 15.8255 11.465 15.7268ZM10.7177 23.6765L16.6128 30.3357L20.5706 25.866C20.6611 26.127 20.788 26.3735 20.9331 26.6117L16.6128 32.0253L10.1705 23.9517L10.7177 23.6765ZM22.7879 14.7494V12.8732C22.8409 12.8123 23.2909 12.2953 23.2379 12.3563C23.2627 13.3062 23.3651 12.185 22.7879 14.7494ZM15.7023 2.19245C15.9417 2.20739 19.1587 1.70213 21.7012 4.45262C21.8013 4.5785 23.8709 7.25051 23.0394 10.1736C22.7549 8.87288 22.2588 7.20607 21.4749 6.41062L20.618 7.26582C21.392 8.0514 21.9004 10.4437 22.0941 11.6839C18.5436 7.96106 13.9635 5.60478 13.9007 5.56491C13.671 5.70806 11.7328 6.0773 10.3252 8.81876L10.258 8.94982V10.9633C10.1976 10.9639 10.0201 10.9658 10.0806 10.9652C9.18621 6.63842 10.8989 3.2013 15.7023 2.19245ZM9.95339 12.2146L10.258 13.4512V14.7509L9.75176 12.6977C9.67748 12.3917 9.90374 12.2756 9.95339 12.2146ZM9.06596 24.5074L16.6128 33.9653L21.7189 27.566C22.2744 28.0641 22.5414 28.1348 23.7191 28.7416L23.3219 27.3914C23.2211 27.0487 23.6201 26.4989 23.8611 26.2462C24.3991 25.9538 24.8475 25.5368 25.183 25.0219L29.349 27.1181L25.4723 36.0113V38.5852H7.75273V36.011L3.8743 27.1189L9.06596 24.5074ZM2.90071 27.9083L6.54576 36.2661V38.5852H1.03546C1.00776 36.7405 1.07613 30.9457 2.90071 27.9083Z" fill="#FF6B09"/>
</g>
<defs>
<clipPath id="clip0_1_2688">
<rect width="33.1915" height="40.0816" fill="white" transform="translate(0 0.0205078)"/>
</clipPath>
</defs>
</svg>
