<svg width="35" height="41" viewBox="0 0 35 41" fill="none" xmlns="http://www.w3.org/2000/svg">
<g clip-path="url(#clip0_1_2704)">
<path d="M0.67721 17.6004C0.67721 18.0473 0 18.0473 0 17.6004C0 8.09601 7.69262 0.387695 17.1776 0.387695C26.6667 0.387695 34.3552 8.09601 34.3552 17.6004C34.3552 18.0473 33.6821 18.0473 33.6821 17.6004C33.6821 11.1761 23.1468 11.172 23.1468 17.6004C23.1468 18.0473 22.4534 18.0473 22.4534 17.6004C22.4534 11.1923 11.9019 11.1923 11.9019 17.6004C11.9019 18.0473 11.2084 18.0473 11.2084 17.6004C11.2084 11.2045 0.67721 11.1598 0.67721 17.6004ZM11.2693 15.1054C11.4517 11.4077 12.0316 8.09195 12.8751 5.56044C13.5483 3.54904 14.3998 2.02119 15.365 1.16381C8.12247 1.95618 2.25872 7.45806 0.948905 14.5934C3.44282 10.9892 9.20113 11.2777 11.2693 15.1054ZM22.4006 14.9388C22.2141 11.3833 21.6504 8.20166 20.8394 5.7758C18.747 -0.502195 15.6083 -0.502195 13.5158 5.7758C12.7048 8.20166 12.1452 11.3833 11.9546 14.9388C14.2052 11.107 20.15 11.107 22.4006 14.9388ZM33.4063 14.5934C32.1006 7.45806 26.2368 1.95618 18.9903 1.16381C19.9594 2.02119 20.807 3.54904 21.4801 5.56044C22.3236 8.09195 22.9035 11.4077 23.086 15.1054C25.1663 11.2574 30.9408 11.0298 33.4063 14.5934Z" fill="#FF6B09"/>
<path d="M14.9234 25.4764V21.9811C14.2948 22.3997 13.8001 23.0459 13.8001 23.8344C13.8001 24.6025 14.3029 25.1106 14.9234 25.4764ZM15.6006 26.5615C14.3962 26.0088 13.127 25.3626 13.127 23.8344C13.127 22.2574 14.3232 21.469 15.6006 20.8796V26.5615Z" fill="#FF6B09"/>
<path d="M19.4319 30.7496V34.2848C20.0686 33.8622 20.5674 33.2121 20.5674 32.4238C20.5674 31.6477 20.0564 31.1235 19.4319 30.7496ZM18.7588 29.6606C19.9672 30.2214 21.2446 30.8878 21.2446 32.4238C21.2446 34.0044 20.0402 34.7928 18.7588 35.3779V29.6606Z" fill="#FF6B09"/>
<path d="M19.4318 18.0026C22.2055 18.6446 25.0563 20.7251 25.0563 23.8337C25.0563 26.4953 20.5673 26.3978 20.5673 23.8337C20.5673 23.0413 20.0685 22.3912 19.4318 21.9726V26.9464C21.9987 27.7875 25.0644 29.2951 25.0644 32.424C25.0644 35.5367 22.2136 37.6132 19.4318 38.2511C19.4197 41.2134 14.9306 41.2094 14.9225 38.2471C13.341 37.8813 11.9663 37.1418 10.9728 36.1625C9.9306 35.1303 9.31422 33.8341 9.31422 32.424C9.31422 29.8031 13.7992 29.8031 13.7992 32.424C13.7992 33.2083 14.2939 33.8544 14.9225 34.2729V29.3032C12.3759 28.4783 9.29395 26.9261 9.29395 23.8256C9.29395 20.7129 12.1447 18.6365 14.9225 17.9985C14.9347 15.0362 19.4237 15.0403 19.4318 18.0026ZM15.5997 18.0107V18.5512C12.9598 19.0753 9.9671 20.7698 9.9671 23.8256C9.9671 26.7635 13.2518 28.0801 15.5997 28.8075V35.3742C14.3304 34.7931 13.1261 34.0088 13.1261 32.424C13.1261 30.693 9.98738 30.693 9.98738 32.424C9.98738 33.6472 10.5308 34.7768 11.4472 35.6789C12.6111 36.833 14.0222 37.3815 15.5997 37.6944V38.2389C15.5997 40.3235 18.7587 40.3235 18.7587 38.2389V37.6985C21.4067 37.1702 24.3872 35.4757 24.3872 32.424C24.3872 29.4577 21.1106 28.1817 18.7587 27.4381V21.3997V20.8755C20.032 21.4566 21.2445 22.2408 21.2445 23.8337C21.2445 25.5201 24.3791 25.5892 24.3791 23.8337C24.3791 20.782 21.4026 19.0835 18.7587 18.5552V18.0107C18.7587 15.9261 15.5997 15.9261 15.5997 18.0107Z" fill="#FF6B09"/>
</g>
<defs>
<clipPath id="clip0_1_2704">
<rect width="35" height="40.0816" fill="white" transform="translate(0 0.387695)"/>
</clipPath>
</defs>
</svg>
