<svg width="43" height="42" viewBox="0 0 43 42" fill="none" xmlns="http://www.w3.org/2000/svg">
<g clip-path="url(#clip0_1_2695)">
<path d="M38.8057 0.0378418H18.5706C17.2533 0.0378418 16.1818 1.10837 16.1818 2.42439V10.7926L1.14883 17.0962C0.978635 17.1675 0.862939 17.328 0.849871 17.512C0.836803 17.6961 0.927958 17.8718 1.08636 17.9667L3.00349 19.1131V31.3288C2.02313 31.5521 1.28748 32.4287 1.28748 33.4776V34.6551C1.28748 34.9251 1.50676 35.1442 1.77704 35.1442H5.21001C5.48029 35.1442 5.69957 34.9251 5.69957 34.6551V33.4776C5.69957 32.4301 4.9638 31.5547 3.98261 31.33V19.6985L5.49846 20.6049C5.45185 20.9541 5.49255 19.9963 5.47678 26.2921C5.47678 28.3617 10.7829 29.4703 16.1818 29.5339V39.0671C16.1818 39.5595 16.3327 40.0175 16.5907 40.3976C17.02 41.032 17.7467 41.4501 18.5693 41.4501H38.8044C40.1205 41.4501 41.1911 40.3802 41.1911 39.0658C41.191 39.1311 41.1884 37.0464 41.1911 2.42471C41.1911 1.12654 40.1166 0.0378418 38.8057 0.0378418ZM4.72045 33.4776V34.166H2.2666V33.4776C2.2666 32.8 2.81576 32.2485 3.4905 32.2485C4.16874 32.2485 4.72045 32.8 4.72045 33.4776ZM38.8057 40.4694H18.5706C18.0851 40.4694 17.6561 40.2239 17.4025 39.8512C17.2506 39.6267 17.1618 39.3564 17.1618 39.0658V35.7612H40.2094V39.0671C40.2094 39.8331 39.5704 40.4694 38.8057 40.4694ZM40.2094 34.7831H17.1609V29.5368C19.7969 29.5066 27.8722 28.9267 27.8722 26.2921C27.8693 22.3371 27.8792 20.7333 27.8598 20.5975L32.256 17.9667C32.4144 17.8718 32.5055 17.6961 32.4924 17.512C32.4794 17.328 32.3637 17.1675 32.1935 17.0962L17.1609 10.7924V6.70744H40.2094V34.7831ZM16.6713 23.0449C13.9558 23.0449 8.72732 23.3953 6.4559 24.8771C6.47031 20.3447 6.2985 20.6399 6.85718 20.2555C8.26817 19.2175 12.3038 18.4928 16.6713 18.4928C18.5762 18.4928 26.8931 19.016 26.8931 20.7752V24.8777C24.6004 23.3821 19.3985 23.0449 16.6713 23.0449ZM17.1618 2.42471C17.1618 1.64936 17.7932 1.01857 18.5693 1.01857H38.8044C39.5812 1.01857 40.2094 1.65821 40.2094 2.42439V5.72926H17.1618V2.42471ZM16.6713 11.648L30.923 17.6241L27.3917 19.7353C25.5143 17.8753 19.3039 17.5146 16.6713 17.5146C14.0353 17.5146 7.82446 17.8764 5.95104 19.7359L2.41863 17.6241L16.6713 11.648ZM6.4559 26.2921C6.4559 25.5005 9.96441 24.0231 16.6713 24.0231C23.3824 24.0231 26.8931 25.5005 26.8931 26.2921C26.8931 27.0843 23.3824 28.5618 16.6713 28.5618C9.96441 28.5618 6.4559 27.0843 6.4559 26.2921Z" fill="#FF6B09"/>
<path d="M28.6865 36.4988C27.7938 36.4988 27.0674 37.2241 27.0674 38.1163C27.0674 39.0086 27.7938 39.7346 28.6865 39.7346C29.5796 39.7346 30.3059 39.0086 30.3059 38.1163C30.3059 37.2241 29.5796 36.4988 28.6865 36.4988ZM28.6865 38.7564C28.3337 38.7564 28.0465 38.4692 28.0465 38.1163C28.0465 37.7635 28.3337 37.477 28.6865 37.477C29.0396 37.477 29.3268 37.7635 29.3268 38.1163C29.3268 38.4692 29.0396 38.7564 28.6865 38.7564Z" fill="#FF6B09"/>
<path d="M30.5541 2.88477H26.8193V3.86295H30.5541V2.88477Z" fill="#FF6B09"/>
</g>
<defs>
<clipPath id="clip0_1_2695">
<rect width="41.998" height="41.0837" fill="white" transform="translate(0.0273438 0.202148)"/>
</clipPath>
</defs>
</svg>
